<?xml version="1.0" standalone="no"?>
<!DOCTYPE svg PUBLIC "-//W3C//DTD SVG 20010904//EN"
 "http://www.w3.org/TR/2001/REC-SVG-20010904/DTD/svg10.dtd">
<svg version="1.0" xmlns="http://www.w3.org/2000/svg"
 width="970.000000pt" height="970.000000pt" viewBox="0 0 970.000000 970.000000"
 preserveAspectRatio="xMidYMid meet">
<metadata>
Created by potrace 1.14, written by Peter Selinger 2001-2017
</metadata>
<g transform="translate(0.000000,970.000000) scale(0.100000,-0.100000)"
fill="#000000" stroke="none">
<path d="M4579 9666 c-2 -2 -44 -7 -94 -11 -113 -8 -169 -14 -220 -21 -22 -3
-58 -8 -80 -10 -22 -2 -51 -6 -65 -9 -13 -2 -42 -7 -65 -10 -22 -3 -47 -8 -55
-10 -8 -3 -33 -7 -55 -9 -22 -3 -55 -10 -73 -15 -18 -5 -35 -10 -37 -10 -3 -1
-6 -1 -7 -2 -2 0 -12 -2 -23 -3 -40 -6 -233 -56 -350 -91 -66 -20 -126 -37
-132 -38 -7 0 -13 -3 -13 -7 0 -4 -6 -7 -13 -7 -18 0 -136 -44 -322 -120 -288
-118 -578 -274 -850 -457 -66 -44 -122 -83 -125 -86 -3 -3 -41 -32 -85 -64
-89 -66 -227 -179 -294 -241 -159 -145 -313 -298 -388 -385 -21 -24 -45 -51
-54 -60 -32 -33 -148 -177 -213 -265 -37 -49 -74 -98 -82 -108 -8 -9 -14 -19
-14 -22 0 -3 -22 -35 -48 -72 -48 -68 -177 -278 -223 -363 -13 -25 -28 -48
-32 -51 -5 -3 -9 -9 -8 -12 0 -4 -35 -80 -79 -169 -43 -90 -106 -235 -140
-323 -34 -88 -66 -169 -71 -180 -10 -24 -49 -144 -54 -165 -1 -9 -15 -54 -29
-100 -14 -47 -39 -143 -56 -215 -16 -71 -33 -141 -37 -155 -3 -14 -7 -38 -9
-55 -1 -16 -5 -41 -8 -55 -4 -14 -9 -41 -12 -60 -17 -112 -24 -161 -30 -210
-3 -30 -7 -66 -9 -79 -12 -76 -20 -258 -20 -486 0 -229 10 -467 19 -484 2 -3
6 -38 10 -76 4 -39 8 -81 10 -95 3 -14 10 -59 16 -100 6 -41 13 -84 15 -95 5
-25 23 -119 24 -122 1 -2 1 -4 2 -5 0 -2 3 -16 5 -33 4 -23 73 -293 87 -340 2
-5 12 -37 22 -70 10 -33 19 -64 21 -70 7 -32 107 -298 134 -360 10 -22 21 -49
26 -60 4 -11 8 -22 9 -25 2 -3 6 -15 10 -27 4 -13 12 -23 18 -23 6 0 8 -3 4
-6 -11 -11 183 -382 270 -517 23 -37 43 -71 43 -76 0 -4 9 -16 20 -26 11 -10
20 -22 20 -26 0 -14 175 -259 259 -362 202 -248 384 -439 601 -628 143 -125
341 -279 358 -279 7 0 12 -4 12 -8 0 -9 261 -183 355 -238 90 -51 149 -84 188
-102 20 -9 37 -20 37 -24 0 -5 5 -8 12 -8 7 0 52 -21 100 -46 49 -25 98 -47
110 -49 11 -3 29 -12 39 -21 10 -9 23 -13 28 -9 6 3 11 2 11 -3 0 -5 8 -12 18
-15 9 -3 93 -35 185 -71 93 -37 176 -68 185 -70 9 -1 24 -6 32 -9 41 -16 266
-82 350 -102 145 -35 193 -44 201 -40 5 4 9 1 9 -5 0 -6 6 -10 13 -8 6 1 30
-2 52 -7 22 -4 49 -9 60 -11 11 -1 38 -5 60 -9 37 -6 62 -10 125 -20 28 -4
128 -16 175 -20 17 -1 68 -6 115 -11 166 -17 672 -10 860 11 19 2 58 6 85 9
28 3 61 8 75 11 14 3 45 7 70 10 25 2 56 7 70 10 14 3 41 7 60 10 19 3 46 8
60 11 14 3 39 7 55 10 17 2 37 7 45 10 8 3 26 7 40 10 14 2 34 6 45 8 60 15
133 33 164 40 10 2 65 19 122 36 57 18 105 32 106 32 2 -1 18 5 37 13 18 8 36
11 40 8 3 -4 6 -2 6 4 0 5 6 10 13 10 13 0 139 44 192 68 17 7 55 23 85 35
113 44 449 204 460 218 3 4 12 8 20 10 8 2 22 9 30 15 8 7 30 20 48 30 18 10
43 24 55 31 43 24 103 61 181 113 43 29 82 53 85 53 3 0 18 11 33 25 15 14 31
25 36 25 4 0 17 8 28 17 11 10 35 29 54 43 50 35 245 191 308 246 170 148 403
386 532 544 25 30 49 60 55 66 5 6 21 26 35 44 14 19 41 54 61 79 19 25 53 72
74 104 21 31 42 57 47 57 5 0 7 4 4 9 -4 5 -3 11 1 13 17 7 182 273 254 408
19 36 38 68 42 71 5 3 8 9 8 13 -1 3 17 43 40 89 23 45 56 116 74 157 18 41
42 95 53 120 27 60 131 341 137 370 1 3 13 43 27 90 41 130 82 286 93 351 3
18 8 36 10 40 3 4 7 24 10 45 5 37 7 52 20 114 2 14 7 41 10 60 3 19 8 46 10
60 3 14 7 45 10 69 2 24 7 60 10 80 36 246 41 742 10 1056 -2 28 -7 64 -9 80
-3 17 -8 53 -11 80 -6 54 -12 96 -20 135 -3 14 -6 37 -7 53 -1 15 -5 27 -8 27
-3 0 -5 10 -6 23 0 12 -3 36 -7 52 -11 54 -16 80 -21 105 -2 14 -7 32 -10 40
-3 8 -8 26 -10 40 -3 14 -12 54 -21 90 -9 36 -18 70 -19 75 -1 6 -4 15 -7 20
-4 6 -10 24 -14 40 -8 30 -12 44 -18 68 -2 6 -7 19 -10 27 -3 8 -15 47 -27 85
-22 69 -116 321 -128 340 -4 6 -7 17 -9 25 -1 8 -7 16 -13 18 -5 2 -8 7 -6 11
6 9 -172 375 -185 379 -5 2 -9 12 -9 23 0 10 -4 19 -10 19 -5 0 -10 5 -10 11
0 24 -236 393 -322 504 -5 6 -36 46 -69 90 -34 44 -67 85 -74 90 -6 6 -16 17
-21 26 -12 21 -119 143 -209 237 -91 96 -185 191 -185 187 0 -1 -20 16 -43 39
-118 111 -290 254 -417 346 -41 30 -79 58 -85 63 -5 4 -32 22 -60 40 -27 17
-59 40 -69 49 -11 10 -26 18 -33 18 -7 0 -13 3 -13 8 0 4 -10 12 -23 18 -12 6
-71 41 -132 78 -135 82 -524 278 -580 292 -5 2 -42 16 -81 32 -75 31 -295 112
-316 116 -7 1 -58 17 -113 34 -92 29 -309 84 -380 96 -16 3 -41 8 -55 12 -23
5 -50 11 -90 18 -8 1 -37 6 -65 10 -27 4 -61 10 -75 12 -14 3 -43 7 -65 9 -22
3 -53 7 -70 10 -16 2 -64 7 -105 10 -41 4 -86 9 -100 12 -30 6 -646 14 -651 9z
m536 -181 c72 -3 144 -8 160 -10 17 -2 57 -7 90 -10 65 -6 124 -13 164 -20 14
-2 55 -9 91 -15 98 -15 123 -20 150 -26 31 -7 57 -13 90 -19 14 -2 86 -20 160
-40 74 -20 143 -37 152 -40 58 -13 341 -113 457 -161 126 -52 460 -210 471
-223 3 -3 30 -19 60 -35 73 -38 326 -196 350 -218 11 -10 23 -18 28 -18 4 0
17 -8 28 -17 11 -10 35 -29 54 -43 19 -13 40 -28 45 -32 35 -28 103 -82 118
-94 9 -8 19 -14 22 -14 2 0 17 -12 33 -27 17 -16 51 -46 78 -68 150 -125 408
-387 534 -543 19 -24 45 -56 58 -70 48 -55 213 -287 279 -390 37 -59 70 -109
73 -112 3 -3 15 -23 26 -45 12 -22 40 -74 63 -115 52 -94 178 -350 183 -370 2
-8 6 -17 9 -20 7 -6 120 -292 122 -311 2 -13 18 -56 37 -104 8 -19 19 -62 19
-78 1 -4 7 -23 15 -42 8 -19 13 -35 10 -35 -3 0 -2 -6 3 -12 4 -7 9 -17 10
-23 33 -135 74 -306 77 -325 3 -14 8 -38 11 -55 4 -16 8 -46 10 -65 2 -19 4
-35 5 -35 2 0 7 -26 14 -70 2 -16 5 -30 6 -30 1 0 3 -25 5 -55 2 -30 4 -55 5
-55 3 0 8 -46 14 -130 4 -44 9 -109 12 -145 12 -142 6 -550 -10 -677 -2 -15
-7 -62 -11 -103 -3 -41 -9 -88 -12 -105 -2 -16 -6 -39 -7 -50 -3 -21 -14 -89
-23 -140 -5 -33 -10 -57 -13 -65 -1 -3 -1 -15 0 -27 1 -13 -3 -23 -9 -23 -6 0
-8 -6 -6 -12 5 -14 -67 -302 -110 -438 -14 -47 -28 -93 -30 -103 -2 -9 -7 -23
-12 -30 -4 -6 -9 -19 -10 -27 -1 -8 -21 -60 -43 -115 -23 -55 -43 -108 -45
-119 -2 -10 -9 -24 -16 -32 -6 -8 -8 -14 -4 -14 4 0 1 -7 -6 -16 -7 -9 -14
-22 -15 -30 -2 -15 -174 -366 -183 -374 -3 -3 -13 -18 -21 -35 -8 -16 -17 -32
-20 -35 -3 -3 -17 -26 -30 -53 -14 -26 -28 -47 -32 -47 -5 0 -8 -5 -8 -11 0
-10 -117 -198 -130 -209 -3 -3 -26 -34 -51 -70 -24 -36 -46 -67 -49 -70 -3 -3
-27 -34 -55 -70 -61 -79 -74 -96 -100 -125 -11 -13 -38 -45 -60 -71 -155 -185
-403 -423 -641 -614 -134 -107 -378 -272 -559 -377 -128 -74 -411 -215 -510
-254 -33 -13 -63 -28 -67 -34 -4 -5 -8 -7 -8 -3 0 3 -46 -12 -102 -34 -57 -22
-110 -41 -118 -43 -8 -2 -35 -11 -60 -20 -49 -18 -78 -26 -97 -27 -7 -1 -13
-4 -13 -8 0 -4 -6 -7 -12 -7 -7 0 -53 -12 -103 -26 -86 -25 -161 -43 -215 -53
-14 -3 -50 -11 -81 -19 -31 -8 -72 -16 -92 -17 -21 -2 -37 -7 -37 -11 0 -5 -3
-6 -7 -4 -7 4 -39 0 -133 -17 -30 -5 -96 -13 -170 -21 -30 -3 -73 -8 -95 -10
-200 -22 -665 -22 -835 -1 -19 3 -62 8 -95 11 -61 6 -130 14 -175 21 -14 2
-43 6 -65 9 -43 6 -80 13 -80 15 0 1 -13 3 -30 5 -40 5 -215 43 -325 71 -101
25 -317 92 -342 105 -10 5 -18 7 -18 3 0 -3 -7 0 -17 7 -9 8 -19 13 -22 13 -7
-2 -27 4 -56 16 -11 4 -74 29 -140 56 -172 68 -411 185 -596 291 -113 65 -291
182 -297 196 -2 4 -8 7 -13 7 -11 0 -92 59 -196 142 -39 32 -74 58 -78 58 -3
0 -16 10 -29 22 -12 13 -49 46 -81 73 -158 135 -363 340 -492 491 -56 66 -100
120 -113 138 -8 12 -20 27 -27 34 -7 7 -20 26 -30 42 -9 17 -21 30 -25 30 -4
0 -14 13 -23 29 -8 16 -20 35 -27 43 -12 12 -135 194 -165 243 -98 162 -133
223 -133 232 0 6 -4 13 -8 15 -11 4 -152 286 -152 304 0 8 -4 14 -10 14 -5 0
-10 6 -10 13 0 7 -9 32 -20 55 -11 22 -20 46 -20 52 0 5 -4 18 -10 28 -18 31
-57 136 -94 247 -20 61 -38 115 -40 120 -2 6 -4 13 -5 17 -1 4 -7 22 -12 40
-17 54 -49 171 -55 198 -3 14 -7 33 -10 42 -5 18 -6 19 -29 128 -9 41 -18 86
-20 100 -2 14 -4 25 -5 25 -1 0 -3 14 -5 30 -1 17 -3 30 -5 30 -2 0 -5 19 -14
95 -3 25 -8 56 -10 70 -5 22 -12 82 -22 190 -22 229 -22 600 0 820 2 19 7 69
12 110 4 41 8 83 8 93 0 9 3 17 6 17 3 0 6 15 7 33 2 54 8 97 13 97 3 0 5 12
4 28 -1 15 1 31 4 37 3 5 7 16 8 25 2 21 14 82 19 100 2 8 6 26 9 40 2 14 14
63 26 110 26 103 29 114 34 140 3 11 8 25 11 30 4 6 8 21 11 33 8 45 97 311
124 372 5 11 26 61 46 110 46 115 158 346 229 471 30 53 55 100 55 105 0 5 5
9 10 9 6 0 10 5 10 11 0 24 287 439 366 529 7 8 26 29 41 47 15 17 44 51 63
74 101 124 360 382 487 484 26 22 53 45 58 51 11 12 92 75 214 166 42 31 81
62 88 67 7 6 15 11 18 11 6 0 66 40 75 51 3 3 46 30 95 60 50 30 92 57 93 62
2 4 7 7 11 7 4 0 57 27 117 61 161 90 350 180 530 252 163 66 318 120 327 115
1 -1 11 4 23 10 11 6 32 13 45 16 13 2 44 11 69 19 41 13 236 63 285 73 24 5
111 22 145 30 23 4 45 8 120 19 14 2 25 4 25 5 0 1 16 4 35 5 19 2 53 6 75 9
22 3 69 8 105 12 36 3 76 7 90 9 13 3 85 7 160 11 74 3 136 7 137 8 4 3 257
-3 378 -9z"/>
<path d="M4745 9310 c-38 -3 -105 -5 -147 -5 -43 0 -78 -2 -78 -5 0 -3 -15 -6
-32 -6 -40 -1 -151 -12 -221 -24 -29 -4 -55 -6 -59 -3 -5 2 -8 0 -8 -6 0 -6
-6 -8 -13 -6 -7 3 -35 1 -62 -5 -28 -6 -63 -12 -80 -15 -107 -17 -459 -105
-525 -132 -8 -4 -18 -7 -22 -8 -5 -2 -9 -3 -10 -5 -2 -1 -10 -3 -19 -5 -26 -5
-190 -65 -235 -86 -22 -10 -44 -19 -48 -19 -4 0 -26 -9 -49 -19 -48 -22 -115
-50 -122 -51 -9 -2 -240 -122 -251 -131 -6 -5 -13 -7 -16 -4 -3 3 -11 -1 -18
-10 -7 -8 -16 -15 -21 -15 -5 0 -57 -29 -115 -65 -59 -36 -110 -65 -114 -65
-5 0 -10 -3 -12 -8 -1 -4 -28 -23 -58 -42 -30 -19 -64 -43 -74 -52 -11 -10
-23 -18 -27 -18 -4 0 -14 -6 -21 -13 -7 -7 -24 -20 -38 -29 -24 -15 -137 -101
-170 -130 -22 -18 -130 -109 -159 -133 -13 -11 -92 -87 -176 -170 -201 -199
-387 -418 -510 -601 -22 -32 -43 -61 -46 -64 -3 -3 -23 -33 -45 -68 -21 -35
-46 -74 -54 -87 -109 -172 -327 -604 -312 -619 3 -3 0 -6 -6 -6 -7 0 -12 -7
-12 -15 0 -8 -5 -23 -10 -33 -24 -41 -161 -447 -175 -521 -2 -9 -4 -16 -5 -16
-1 0 -4 -11 -6 -24 -2 -14 -11 -50 -19 -80 -8 -31 -16 -67 -19 -81 -3 -14 -12
-60 -20 -102 -22 -110 -38 -211 -51 -328 -3 -25 -7 -65 -10 -90 -24 -210 -24
-601 0 -835 2 -27 7 -77 10 -109 2 -33 7 -66 9 -75 3 -9 8 -36 11 -61 5 -48
10 -75 25 -155 5 -27 12 -61 14 -75 2 -14 10 -47 16 -75 7 -27 14 -59 15 -70
2 -11 4 -20 5 -20 2 0 5 -14 14 -53 13 -57 54 -193 99 -327 40 -121 84 -237
117 -310 10 -22 28 -65 41 -95 48 -113 175 -353 253 -480 81 -131 281 -418
306 -440 3 -3 28 -32 54 -65 88 -110 169 -199 308 -337 76 -76 138 -136 138
-134 0 3 17 -12 38 -32 20 -20 59 -54 84 -75 26 -21 53 -43 60 -50 7 -7 33
-28 58 -47 25 -19 47 -38 48 -42 2 -5 9 -8 15 -8 7 0 29 -16 51 -35 21 -19 42
-35 46 -35 5 0 15 -6 22 -13 31 -31 341 -227 358 -227 6 0 10 -5 10 -11 0 -5
4 -8 9 -5 5 3 14 -1 21 -9 7 -8 19 -15 26 -15 8 0 14 -4 14 -10 0 -5 9 -10 20
-10 11 0 20 -4 20 -10 0 -5 9 -10 19 -10 11 0 21 -4 23 -8 5 -14 245 -125 413
-192 135 -54 377 -135 387 -130 2 1 17 -4 33 -10 36 -15 54 -19 225 -58 144
-33 193 -43 225 -48 11 -2 31 -5 45 -8 14 -2 48 -7 75 -11 28 -3 64 -8 80 -11
94 -13 222 -23 355 -29 52 -2 95 -4 95 -5 0 -1 24 -2 53 -3 28 -1 52 2 52 6 0
5 5 5 12 1 16 -10 58 -12 58 -2 0 4 11 3 24 -2 13 -5 27 -6 30 -3 4 4 43 7 89
9 45 1 118 5 162 9 44 4 98 9 120 10 22 2 40 4 40 5 0 1 11 3 25 4 30 3 137
17 165 22 11 2 58 11 105 20 71 13 233 50 303 69 9 3 25 7 35 10 9 2 42 11 72
20 30 9 63 18 72 20 9 2 25 8 35 13 10 6 23 10 28 11 29 3 286 97 370 136 17
7 51 22 76 33 84 36 284 136 287 144 2 5 8 8 13 8 5 0 27 11 49 25 22 14 40
22 40 18 0 -5 4 -3 8 3 4 6 27 21 52 35 25 13 49 27 55 32 5 4 51 33 100 65
50 31 97 62 105 69 8 6 79 59 158 118 78 58 153 116 165 128 13 12 52 47 88
77 74 63 349 338 395 396 18 21 43 51 57 66 14 15 38 45 54 65 15 21 40 52 55
68 16 17 28 33 28 36 0 3 11 19 25 35 14 16 35 45 47 64 12 19 25 37 28 40 38
30 271 423 364 615 132 272 271 652 322 885 4 19 9 40 10 45 10 40 63 308 67
340 4 22 8 56 11 75 43 287 51 699 20 1030 -9 96 -14 146 -19 178 -3 17 -7 49
-10 70 -10 68 -56 296 -72 357 -8 33 -17 68 -19 78 -39 170 -130 442 -208 619
-9 20 -16 39 -16 42 0 10 -152 318 -186 376 -17 30 -40 71 -51 90 -56 102
-256 403 -298 447 -14 15 -25 31 -25 35 0 3 -6 13 -13 20 -6 7 -57 67 -112
133 -138 167 -399 427 -554 551 -13 10 -34 29 -47 42 -13 12 -26 22 -29 22 -3
0 -31 21 -63 46 -31 25 -64 51 -72 57 -28 22 -255 174 -303 203 -27 16 -61 37
-75 46 -53 33 -404 215 -418 217 -2 0 -26 10 -52 21 -55 26 -320 129 -342 135
-8 2 -44 13 -80 25 -36 12 -72 23 -80 25 -8 1 -41 10 -74 20 -32 9 -64 18 -70
20 -6 1 -18 5 -26 8 -11 4 -119 30 -180 42 -3 1 -18 4 -35 8 -33 7 -71 14
-190 32 -5 1 -12 3 -15 4 -9 5 -70 12 -210 27 -25 2 -63 6 -85 9 -22 3 -123 8
-225 11 -102 3 -192 6 -200 7 -8 1 -46 0 -85 -3z m65 -458 c24 -20 55 -47 67
-59 13 -13 26 -23 29 -23 3 0 34 -24 67 -54 70 -61 56 -65 142 39 95 114 104
122 133 119 15 -2 52 -6 82 -9 30 -3 56 -8 58 -10 3 -2 -15 -28 -39 -57 -110
-133 -154 -185 -176 -207 -26 -27 -32 -17 58 -93 24 -20 54 -44 65 -55 12 -10
41 -34 64 -53 24 -19 48 -40 54 -45 6 -6 52 -44 101 -85 50 -41 92 -77 95 -80
3 -3 31 -26 62 -53 63 -53 53 -56 128 33 25 29 54 63 65 76 11 12 34 39 50 60
17 21 42 52 58 68 15 16 27 32 27 35 0 3 17 24 38 47 20 22 57 65 82 95 25 30
59 68 75 86 l30 32 140 -58 c77 -32 174 -74 215 -93 41 -20 79 -36 84 -36 5 0
12 -4 15 -9 3 -5 18 -16 33 -26 15 -9 42 -30 60 -47 18 -16 79 -68 136 -115
l103 -85 23 27 23 26 61 -43 c53 -37 60 -45 50 -59 -7 -9 -19 -20 -25 -24 -21
-13 -15 -33 15 -53 15 -10 32 -22 38 -28 17 -16 59 -52 159 -136 50 -41 92
-77 95 -80 3 -3 41 -35 85 -70 43 -36 97 -82 120 -102 22 -21 42 -38 45 -38 3
0 14 11 24 25 10 14 23 25 28 25 12 0 98 -91 98 -104 0 -5 -7 -17 -16 -27 -15
-16 -14 -19 7 -36 12 -10 29 -25 38 -33 9 -8 41 -35 71 -60 87 -71 128 -112
158 -155 15 -22 30 -42 33 -45 14 -12 132 -196 192 -298 l65 -114 -21 -26
c-12 -14 -30 -34 -39 -44 -10 -10 -18 -20 -18 -23 0 -3 -8 -13 -17 -23 -23
-23 -79 -88 -121 -140 -19 -23 -44 -52 -55 -66 -12 -14 -35 -42 -52 -62 -16
-20 -35 -42 -40 -48 -39 -43 -95 -115 -95 -123 0 -9 1 -10 115 -103 44 -36 85
-70 90 -76 6 -6 39 -35 75 -64 36 -29 67 -56 70 -59 3 -3 28 -24 55 -45 28
-22 55 -44 60 -51 24 -27 109 -85 115 -78 4 5 29 35 56 68 27 33 51 62 54 65
3 3 23 26 44 53 21 26 42 47 46 47 6 0 29 -77 45 -153 3 -14 -62 -102 -122
-165 -18 -19 -16 -24 18 -52 136 -111 178 -152 183 -178 3 -15 8 -54 11 -86 3
-33 7 -68 11 -78 3 -10 2 -18 -2 -18 -6 0 -79 56 -110 85 -6 5 -33 28 -59 50
-27 22 -53 45 -59 50 -24 23 -103 85 -108 85 -3 0 -31 -31 -61 -69 -31 -37
-61 -74 -69 -82 -12 -13 -154 -182 -170 -204 -4 -5 -20 -24 -35 -41 -16 -17
-41 -48 -58 -68 -16 -21 -42 -51 -57 -68 -34 -38 -35 -54 -5 -69 12 -7 27 -17
32 -24 6 -6 78 -67 160 -136 83 -68 152 -126 155 -129 3 -3 32 -27 65 -55 33
-27 62 -52 65 -55 15 -18 80 -61 80 -54 0 5 17 28 38 50 20 23 51 59 67 79 17
21 39 48 50 60 11 13 35 41 54 64 19 23 37 41 41 41 6 0 5 -24 -4 -169 -5 -73
-11 -87 -66 -141 -3 -3 -20 -24 -38 -47 -36 -46 -39 -38 35 -101 l39 -32 -15
-78 c-8 -42 -16 -79 -17 -81 -3 -3 -75 51 -110 84 -6 5 -23 20 -37 32 l-25 21
-19 -22 c-10 -11 -40 -48 -68 -81 -27 -33 -52 -62 -55 -65 -3 -3 -27 -32 -55
-65 -27 -33 -52 -62 -55 -65 -3 -3 -21 -25 -41 -50 -20 -25 -45 -55 -55 -66
-11 -12 -41 -49 -69 -83 -27 -33 -53 -61 -57 -61 -26 0 16 -51 92 -110 17 -14
45 -36 60 -50 15 -14 42 -36 60 -50 18 -14 44 -36 60 -50 15 -14 50 -43 78
-65 28 -22 53 -44 55 -50 2 -5 -10 -41 -27 -78 l-31 -68 -110 92 c-60 51 -112
95 -115 98 -3 4 -25 22 -50 41 -25 19 -47 37 -50 41 -3 3 -33 30 -68 58 -51
42 -65 50 -75 39 -11 -12 -86 -100 -132 -157 -11 -13 -32 -37 -47 -53 -15 -15
-25 -28 -21 -28 3 0 -5 -11 -18 -24 -13 -13 -31 -32 -39 -42 -8 -10 -57 -68
-108 -129 -52 -60 -96 -115 -99 -122 -5 -12 18 -36 78 -83 18 -14 40 -32 48
-40 9 -9 57 -49 106 -90 50 -41 92 -77 95 -80 3 -3 53 -45 112 -94 l108 -88
-42 -59 c-22 -33 -44 -59 -47 -59 -6 0 -162 127 -251 203 -14 12 -61 51 -104
87 -43 36 -91 77 -106 93 -15 15 -30 27 -34 27 -4 0 -19 11 -34 25 -34 32 -44
31 -69 -3 -11 -15 -53 -66 -93 -112 -39 -47 -79 -94 -88 -105 -39 -46 -117
-140 -122 -145 -22 -22 -151 -182 -149 -184 7 -4 124 -101 129 -106 4 -4 40
-35 145 -122 182 -152 240 -203 243 -213 3 -13 -88 -95 -105 -95 -6 0 -21 10
-35 23 -13 12 -48 42 -78 67 -30 24 -62 51 -71 60 -9 8 -25 22 -35 30 -11 8
-50 41 -89 73 -38 33 -87 73 -108 90 -21 18 -49 42 -62 54 -24 23 -45 30 -45
16 0 -5 -18 -27 -40 -51 -22 -24 -40 -47 -40 -52 0 -4 -4 -10 -8 -12 -4 -2
-55 -59 -112 -128 -58 -69 -108 -126 -112 -128 -5 -2 -8 -10 -8 -18 0 -9 -4
-12 -10 -9 -5 3 -10 3 -10 -2 0 -8 -6 -16 -85 -109 -22 -26 -41 -50 -43 -54
-1 -4 17 -23 40 -42 24 -20 54 -46 68 -58 14 -12 69 -59 123 -103 53 -44 97
-83 97 -88 0 -4 -29 -22 -65 -40 -74 -36 -79 -35 -151 29 -23 20 -61 53 -85
72 -23 19 -52 43 -63 52 -12 10 -32 27 -45 38 l-23 19 -35 -42 c-37 -45 -96
-116 -126 -151 -10 -11 -26 -30 -35 -41 -107 -128 -171 -204 -189 -225 -13
-14 -23 -28 -23 -33 0 -9 -43 -27 -80 -33 -14 -3 -34 -8 -45 -11 -11 -4 -28
-8 -37 -9 -10 -1 -19 -3 -20 -4 -4 -4 -36 -9 -94 -16 -47 -5 -54 -3 -81 23
-16 15 -51 46 -78 68 -27 22 -54 46 -61 53 -7 6 -16 12 -20 12 -4 0 -12 6 -18
14 -18 22 -324 276 -333 276 -5 0 -22 -16 -38 -36 -17 -20 -38 -46 -49 -58
-10 -11 -35 -41 -55 -66 -20 -25 -41 -51 -48 -58 -7 -7 -29 -34 -50 -60 -21
-25 -47 -56 -58 -68 -11 -12 -36 -41 -55 -65 -86 -106 -79 -102 -162 -95 -40
3 -84 7 -98 10 -14 2 -69 10 -122 16 -54 7 -101 13 -105 14 -5 0 -17 8 -28 17
-11 10 -56 47 -100 84 -44 37 -91 77 -105 89 -202 171 -213 179 -222 157 -4
-11 -73 -94 -123 -148 l-40 -43 -40 14 c-22 8 -54 21 -72 28 l-32 14 22 26
c12 14 31 37 42 51 36 45 110 131 127 149 20 20 24 15 -83 104 -26 22 -57 48
-70 59 -13 11 -42 35 -64 53 -93 78 -129 108 -152 129 -13 11 -43 36 -66 55
-23 18 -58 48 -78 65 -20 18 -41 33 -45 33 -10 0 -18 -9 -104 -110 -30 -36
-61 -72 -68 -80 -7 -8 -20 -25 -30 -36 -9 -12 -36 -44 -60 -72 -24 -27 -49
-57 -55 -66 -11 -14 -19 -12 -74 25 -35 22 -63 42 -63 45 0 4 19 28 60 74 14
15 34 39 45 52 11 14 39 47 61 74 167 198 179 214 156 214 -5 0 -17 8 -28 17
-10 10 -60 52 -109 93 -50 41 -95 80 -101 86 -6 5 -30 26 -54 45 -23 18 -52
42 -63 52 -68 58 -118 100 -162 136 l-50 42 -19 -23 c-10 -13 -38 -45 -61 -73
-24 -27 -53 -61 -64 -75 -12 -14 -29 -34 -39 -46 -9 -11 -37 -45 -62 -74 -25
-30 -57 -68 -71 -84 l-26 -29 -34 35 c-77 80 -78 64 2 159 39 46 78 93 87 104
9 11 52 61 94 112 l77 91 -57 49 c-31 26 -65 55 -76 63 -10 8 -26 22 -35 30
-9 8 -36 31 -61 50 -24 19 -58 47 -75 62 -30 26 -71 61 -175 148 -30 25 -62
53 -72 63 -10 9 -20 17 -22 17 -7 0 -27 -21 -71 -75 -22 -27 -47 -56 -55 -65
-8 -9 -32 -37 -53 -63 -21 -26 -42 -47 -47 -47 -5 0 -25 29 -45 65 l-37 65 74
86 c121 143 116 133 87 156 -25 21 -96 80 -164 138 -23 19 -65 55 -95 80 -197
164 -185 151 -218 252 -17 51 -40 124 -51 162 -23 76 -26 68 49 156 59 70 107
127 150 180 19 23 40 47 45 54 11 12 99 117 130 155 11 13 30 35 42 48 19 22
22 53 4 53 -3 0 -19 12 -36 26 -16 14 -50 43 -75 63 -24 20 -51 43 -60 51 -9
9 -33 29 -55 45 -21 17 -48 39 -60 50 -24 23 -59 53 -135 115 -30 25 -71 59
-90 77 -20 19 -42 31 -51 28 -14 -5 -16 7 -13 105 4 108 10 134 37 162 7 7 30
35 52 63 22 27 47 56 55 65 8 8 33 38 55 65 22 28 42 52 46 55 3 3 29 34 59
70 29 36 61 74 71 85 10 11 39 45 64 75 l45 54 -34 31 c-38 33 -40 35 -179
149 -53 44 -97 83 -97 88 0 4 -7 8 -16 8 -10 0 -14 6 -10 18 3 9 12 44 22 77
9 33 18 61 19 63 4 5 45 -20 69 -43 12 -11 46 -40 75 -65 30 -25 59 -49 65
-55 6 -5 31 -26 56 -46 25 -20 63 -52 85 -72 l40 -36 20 22 c11 13 44 52 74
87 30 36 62 72 70 81 9 9 23 26 31 38 8 13 26 35 40 50 14 15 41 47 60 70 37
46 58 71 93 111 86 98 101 122 86 134 -25 18 -100 80 -116 95 -7 7 -33 29 -56
48 -23 19 -62 52 -87 73 -25 21 -90 76 -145 121 -55 46 -108 90 -117 99 -10 8
-18 20 -18 26 0 16 62 124 72 124 4 0 18 -10 31 -22 13 -13 34 -32 48 -43 43
-35 144 -120 149 -125 3 -3 30 -25 60 -50 30 -25 73 -62 95 -82 22 -21 46 -38
53 -38 6 0 12 -4 12 -8 0 -5 29 -32 65 -61 l66 -53 20 23 c11 13 30 35 42 49
12 14 78 93 147 175 68 83 129 155 135 162 5 6 25 29 42 50 18 21 46 54 63 73
30 36 37 56 21 62 -5 2 -31 22 -58 44 -71 61 -230 194 -277 232 -23 18 -67 57
-100 85 -32 29 -65 56 -73 61 -9 4 -24 17 -35 28 -22 22 -21 22 -86 -61 -15
-19 -31 -39 -37 -45 -5 -6 -34 -40 -64 -76 -30 -36 -64 -75 -75 -87 -12 -11
-31 -34 -43 -50 -12 -15 -35 -44 -52 -63 -16 -19 -39 -46 -51 -60 -11 -14 -39
-45 -61 -70 l-40 -45 37 60 c50 80 138 208 185 270 22 28 42 55 46 60 22 29
163 196 198 234 66 73 309 311 313 307 2 -2 -3 -12 -12 -23 -42 -51 -134 -161
-154 -183 -25 -29 -29 -50 -7 -50 8 0 15 -3 15 -7 0 -5 28 -30 61 -58 34 -27
67 -54 73 -60 6 -5 41 -35 76 -65 36 -30 70 -59 77 -65 6 -5 28 -24 50 -42 21
-17 76 -63 123 -102 81 -69 85 -71 100 -52 35 44 86 105 105 125 11 11 27 30
35 42 8 11 38 47 65 79 52 61 116 136 144 170 9 11 37 45 64 76 26 31 47 61
47 67 0 6 -21 28 -47 49 -27 21 -54 43 -61 50 -7 7 -34 29 -59 50 -26 21 -54
45 -63 53 -9 8 -33 29 -54 45 -21 17 -50 41 -66 55 -15 14 -55 47 -88 75 -33
27 -58 53 -56 57 8 13 111 78 123 78 7 0 26 -12 41 -27 16 -16 35 -33 42 -38
32 -26 195 -162 213 -178 11 -10 33 -28 48 -40 15 -12 49 -41 75 -64 26 -24
49 -43 52 -43 10 0 26 16 70 70 25 30 49 60 55 66 31 34 102 120 115 138 8 12
27 33 43 49 15 15 25 27 22 27 -3 0 3 8 13 18 9 11 37 43 62 72 25 29 55 65
68 79 46 52 45 56 -6 97 -26 21 -54 45 -63 53 -9 9 -31 27 -49 41 -47 36 -60
50 -60 62 0 6 3 9 6 6 3 -3 32 5 64 18 33 13 67 24 76 24 10 0 50 -27 90 -60
40 -33 78 -60 86 -60 7 0 22 13 33 29 19 28 76 96 140 168 17 18 41 36 55 39
14 2 48 9 75 15 28 6 61 12 75 15 14 2 31 7 38 9 6 2 12 2 12 -2 0 -7 -92
-117 -102 -121 -5 -2 -8 -10 -8 -17 0 -7 -4 -15 -9 -17 -13 -4 -191 -219 -191
-230 0 -4 3 -8 8 -8 6 0 26 -17 119 -101 18 -16 37 -29 43 -29 5 0 10 -3 10
-7 0 -5 28 -30 62 -58 35 -27 75 -61 90 -75 14 -14 52 -45 82 -69 31 -24 56
-48 56 -52 0 -5 5 -9 11 -9 6 0 16 -6 23 -12 23 -22 66 -58 70 -58 2 0 45 51
97 113 51 61 98 117 104 123 5 6 24 27 40 48 17 21 39 48 50 60 24 28 88 102
149 176 34 42 42 58 33 66 -7 6 -70 60 -142 119 -71 60 -132 111 -135 114 -3
3 -27 24 -54 46 -47 37 -48 40 -26 45 13 3 62 6 109 8 l86 2 45 -38z"/>
<path d="M6303 8522 c-16 -20 -35 -44 -44 -52 -9 -8 -40 -44 -69 -80 -29 -36
-56 -67 -59 -70 -3 -3 -31 -35 -60 -72 -30 -38 -57 -68 -61 -68 -3 0 -13 -12
-22 -27 -10 -16 -33 -45 -52 -65 -19 -21 -33 -38 -30 -38 2 0 -9 -14 -26 -31
-16 -18 -30 -35 -30 -38 1 -3 37 -35 81 -71 44 -36 88 -72 98 -80 9 -8 46 -40
81 -69 36 -30 72 -61 80 -68 8 -7 36 -30 61 -51 51 -43 61 -51 109 -92 67 -59
68 -58 160 57 20 25 210 251 237 283 12 14 31 36 43 50 12 14 34 40 48 59 15
19 32 39 38 45 15 16 25 46 14 46 -5 0 -15 6 -22 13 -7 7 -51 44 -98 82 -47
38 -87 72 -90 75 -3 3 -45 39 -95 80 -49 41 -99 83 -110 94 -11 10 -44 36 -72
58 -29 22 -53 44 -53 48 0 4 -7 10 -15 14 -9 3 -25 -8 -42 -32z"/>
<path d="M4983 8362 c-40 -48 -82 -99 -95 -114 -13 -15 -39 -46 -58 -69 -61
-73 -70 -83 -113 -132 -23 -27 -45 -54 -49 -61 -4 -7 -23 -30 -43 -52 -56 -60
-59 -69 -29 -89 14 -9 33 -24 42 -33 10 -9 35 -30 56 -47 40 -31 52 -41 126
-105 25 -21 81 -69 125 -106 44 -37 82 -71 83 -75 2 -5 8 -9 14 -9 5 0 15 -6
22 -12 33 -32 76 -68 82 -68 4 0 21 17 38 37 17 20 49 58 71 83 22 25 55 65
73 88 40 49 66 80 90 107 10 11 38 45 62 75 25 30 50 59 56 65 6 5 30 34 54
63 l43 54 -24 21 c-13 12 -56 48 -94 80 -39 33 -79 66 -90 76 -11 9 -48 40
-82 68 -91 76 -92 77 -111 94 -9 8 -39 33 -67 55 -27 21 -54 44 -60 49 -48 49
-45 51 -122 -43z"/>
<path d="M3764 8316 c-17 -18 -76 -86 -146 -171 -118 -143 -142 -171 -147
-175 -3 -3 -40 -45 -81 -95 -41 -49 -81 -97 -89 -105 -11 -12 -11 -15 0 -19 7
-2 20 -12 29 -22 8 -9 60 -54 115 -100 55 -46 105 -88 112 -93 20 -17 82 -70
168 -142 44 -36 94 -79 112 -95 l31 -28 45 52 c66 76 79 91 114 134 17 21 39
48 50 59 10 12 34 41 55 65 20 24 44 54 55 66 10 12 25 30 33 40 8 10 41 49
73 86 31 38 57 72 57 76 0 4 -26 29 -57 56 -32 28 -59 53 -61 57 -2 5 -8 8
-13 8 -6 0 -20 10 -33 23 -13 12 -43 38 -66 57 -104 85 -136 113 -145 124 -5
7 -19 18 -31 26 -28 20 -112 90 -138 116 l-21 20 -21 -20z"/>
<path d="M7030 7972 c0 -7 -7 -12 -15 -12 -8 0 -15 -4 -15 -8 0 -5 -8 -18 -17
-29 -10 -11 -36 -42 -58 -69 -22 -26 -82 -98 -133 -158 -118 -140 -117 -138
-181 -216 -30 -36 -58 -68 -63 -71 -8 -5 182 -179 196 -179 3 0 18 -12 33 -26
15 -15 69 -60 118 -102 50 -41 108 -90 130 -108 22 -19 51 -43 64 -54 13 -11
28 -20 32 -20 4 0 25 21 46 48 21 26 40 49 43 52 8 8 114 133 125 148 6 7 17
21 25 30 8 10 35 42 60 72 25 30 50 61 57 68 7 7 29 34 50 60 21 26 46 54 55
63 24 22 23 34 -6 56 -54 41 -443 369 -463 390 -12 13 -25 23 -30 23 -4 0 -18
12 -30 27 -13 14 -23 21 -23 15z"/>
<path d="M5723 7835 c-13 -13 -23 -27 -23 -30 0 -3 -8 -13 -17 -23 -10 -10
-36 -39 -58 -66 -22 -27 -48 -58 -58 -70 -10 -11 -35 -41 -55 -65 -20 -24 -45
-52 -54 -62 -10 -11 -18 -23 -18 -29 0 -5 -4 -10 -8 -10 -5 0 -33 -30 -63 -67
-30 -37 -64 -78 -76 -91 -13 -14 -23 -28 -23 -32 0 -3 18 -22 41 -41 22 -19
51 -44 64 -56 13 -13 27 -23 30 -23 3 0 16 -10 28 -23 12 -12 47 -42 77 -67
30 -24 60 -49 65 -55 6 -6 20 -18 33 -27 12 -8 40 -32 62 -52 21 -20 41 -36
44 -36 3 0 16 -10 29 -22 13 -13 40 -38 61 -56 l38 -32 24 27 c13 16 24 31 24
34 0 4 6 9 13 12 9 3 12 -30 10 -152 -1 -86 -2 -159 -2 -164 -1 -4 -12 0 -26
9 -29 19 -24 24 -105 -76 -25 -30 -50 -61 -57 -68 -7 -7 -29 -34 -50 -60 -21
-26 -45 -54 -53 -62 -8 -8 -35 -40 -60 -70 -43 -53 -68 -84 -100 -119 -34 -37
-82 -102 -79 -105 16 -14 104 -88 143 -121 27 -22 59 -49 71 -60 13 -11 41
-34 62 -52 71 -59 178 -148 198 -165 11 -10 28 -24 39 -31 17 -12 18 -28 18
-163 0 -190 2 -174 -28 -209 -14 -16 -38 -45 -52 -64 -15 -19 -32 -39 -39 -46
-6 -6 -35 -41 -64 -76 -29 -35 -56 -66 -59 -69 -3 -3 -35 -41 -70 -85 -36 -44
-75 -90 -87 -103 -13 -12 -23 -26 -22 -30 0 -4 31 -32 70 -62 38 -30 69 -59
69 -63 0 -5 5 -5 10 -2 6 3 10 2 10 -2 0 -5 41 -42 91 -83 51 -41 110 -91 132
-111 l41 -36 1 -97 c0 -53 0 -96 -1 -96 -2 0 -121 98 -198 163 -27 23 -65 55
-85 72 -20 16 -45 40 -57 53 -17 20 -141 227 -153 257 -2 5 -14 26 -26 45 -25
40 -38 73 -27 67 4 -3 62 61 129 142 68 80 133 158 145 173 13 14 51 59 84
100 34 40 76 89 93 108 17 19 31 40 31 45 0 6 -19 26 -41 45 -23 19 -47 39
-53 45 -6 5 -76 64 -156 130 -80 66 -150 124 -156 130 -6 5 -33 28 -59 50 -27
22 -59 50 -72 63 -13 12 -26 22 -29 22 -7 0 -18 -12 -79 -85 -27 -33 -60 -71
-71 -85 -12 -14 -52 -61 -89 -105 -37 -44 -72 -80 -77 -80 -5 0 -21 23 -36 50
-15 28 -30 52 -34 53 -14 6 -8 29 13 53 11 13 37 44 57 68 21 24 42 49 47 55
6 6 34 41 64 76 30 36 62 73 70 83 14 17 14 20 -2 32 -16 12 -97 79 -121 100
-16 15 -128 108 -144 120 -7 6 -23 19 -35 31 -12 11 -74 64 -139 117 -107 90
-138 109 -138 90 0 -5 -19 -28 -41 -53 -39 -43 -41 -44 -55 -26 -8 11 -14 25
-14 32 0 7 -3 14 -7 16 -5 2 -16 18 -26 36 -17 33 -17 34 8 64 36 43 36 42
-45 108 -30 25 -59 50 -63 57 -4 7 -13 13 -18 13 -13 0 -48 41 -49 56 0 6 -9
21 -20 34 -11 13 -20 28 -20 35 0 6 -5 16 -12 23 -11 11 -36 55 -108 186 -44
80 -42 79 -205 79 -126 0 -143 2 -133 15 13 15 15 14 -122 132 -34 30 -68 57
-73 59 -6 2 -21 13 -33 25 -34 33 -74 67 -134 116 -52 42 -99 82 -124 105 -6
6 -26 23 -45 38 l-34 28 -26 -29 c-14 -16 -42 -48 -63 -73 -110 -133 -153
-185 -158 -189 -3 -3 -25 -30 -50 -60 -25 -30 -50 -61 -57 -68 -7 -7 -29 -33
-50 -59 -21 -26 -48 -58 -61 -72 l-23 -25 38 -34 c21 -18 52 -45 70 -58 l31
-25 0 -95 c-1 -52 -3 -94 -6 -94 -4 0 -90 67 -102 80 -18 19 -120 100 -125
100 -9 0 -38 -31 -85 -90 -19 -25 -47 -58 -62 -75 -14 -16 -77 -91 -139 -165
-62 -74 -118 -140 -124 -146 -23 -25 -70 -88 -70 -94 0 -7 57 -57 134 -120 24
-19 54 -45 67 -58 13 -13 24 -20 24 -18 0 3 12 -7 28 -22 15 -15 52 -47 82
-72 83 -68 90 -73 165 -138 50 -42 73 -56 80 -48 6 6 34 40 64 76 29 36 57 66
61 68 5 2 8 -48 8 -110 -1 -85 -4 -117 -16 -130 -13 -16 -13 -18 0 -23 12 -5
15 -26 15 -106 0 -54 -4 -99 -8 -99 -5 0 -9 3 -9 8 0 4 -24 26 -53 49 l-54 42
-114 -137 c-62 -75 -116 -139 -119 -142 -3 -3 -28 -32 -55 -65 -28 -33 -54
-65 -60 -71 -21 -23 -101 -119 -117 -139 -16 -21 -16 -23 15 -52 18 -16 73
-63 122 -104 50 -40 92 -76 95 -79 3 -3 30 -25 60 -50 30 -25 57 -47 60 -50 3
-3 30 -25 60 -50 30 -25 64 -53 75 -63 11 -10 32 -27 47 -38 23 -17 28 -17 41
-5 13 13 14 0 15 -104 0 -115 -1 -120 -27 -148 -30 -32 -46 -51 -151 -177 -41
-50 -84 -101 -96 -115 -12 -14 -67 -79 -123 -145 l-101 -120 22 -18 c13 -11
43 -36 68 -58 54 -46 74 -63 130 -109 41 -34 113 -95 136 -115 6 -5 28 -23 50
-40 21 -16 50 -42 65 -56 l26 -26 0 -194 c1 -188 -2 -212 -30 -241 -12 -13
-97 -113 -127 -151 -8 -10 -24 -29 -35 -41 -23 -26 -85 -99 -144 -171 -39 -47
-51 -75 -33 -75 4 0 25 -15 45 -34 20 -18 51 -45 69 -59 18 -14 47 -38 65 -53
17 -16 46 -40 63 -54 35 -28 62 -50 100 -83 14 -12 52 -44 85 -72 33 -27 71
-60 85 -73 30 -27 63 -39 68 -24 1 5 12 21 23 34 11 12 30 34 42 48 27 32 117
138 137 163 70 86 67 85 168 85 50 1 92 -2 92 -6 0 -4 -13 -21 -28 -38 -39
-45 -61 -72 -112 -134 -25 -30 -53 -62 -62 -71 -10 -9 -18 -19 -18 -23 0 -3
-8 -14 -17 -24 -29 -30 -107 -123 -115 -137 -8 -13 1 -21 107 -110 33 -27 62
-52 65 -55 3 -3 17 -15 32 -26 24 -19 124 -103 152 -129 6 -6 36 -30 66 -55
30 -25 64 -53 75 -63 11 -10 32 -27 46 -37 26 -19 26 -19 45 3 10 12 53 63 94
112 41 50 80 95 85 101 6 6 25 29 43 52 19 23 41 50 50 60 10 11 35 41 57 68
22 27 47 55 55 64 8 8 30 34 48 57 l32 41 -142 120 c-79 65 -158 132 -177 148
-19 16 -49 42 -67 57 -30 26 -32 30 -19 44 24 24 33 47 26 67 -4 10 -5 31 -3
47 l4 29 41 -33 c23 -17 49 -39 58 -47 8 -8 27 -24 41 -35 14 -11 47 -39 74
-62 81 -69 91 -77 132 -111 22 -18 58 -48 79 -67 44 -40 55 -42 74 -16 15 20
310 373 319 381 3 3 37 43 75 89 l69 83 -35 30 c-19 16 -50 41 -69 56 -19 15
-39 32 -45 38 -9 9 -52 46 -154 129 -13 11 -35 30 -48 42 -13 11 -43 36 -65
55 -23 18 -67 54 -97 80 -31 26 -58 48 -61 48 -11 0 -30 -21 -150 -165 -69
-82 -134 -161 -145 -174 -11 -13 -37 -42 -58 -65 -38 -40 -38 -40 -34 -13 2
15 0 30 -5 33 -4 3 -5 10 -2 16 4 6 6 43 6 83 -1 62 3 77 21 98 12 13 42 48
67 77 25 30 59 70 75 89 17 20 33 38 38 39 4 2 7 8 7 12 0 5 13 23 30 41 l29
32 -22 19 c-12 11 -33 29 -47 41 -14 12 -47 40 -75 62 -94 75 -124 111 -125
147 0 18 0 40 -1 48 -2 32 5 100 9 100 3 0 24 -17 47 -37 23 -21 80 -69 126
-108 46 -38 86 -73 87 -77 2 -5 7 -8 12 -8 4 0 25 -16 46 -35 l38 -35 28 32
c16 18 36 42 46 53 10 11 36 42 58 70 21 27 48 59 59 70 11 11 49 56 85 100
35 44 69 85 75 91 5 6 26 30 45 53 19 23 47 57 62 74 15 18 27 34 27 37 0 3
-36 34 -81 70 -44 36 -90 74 -102 85 -12 11 -44 38 -71 60 -27 22 -56 47 -65
55 -8 8 -36 31 -60 50 -25 19 -47 37 -50 41 -3 4 -36 32 -73 62 -60 49 -71 55
-88 44 -10 -6 -19 -15 -19 -18 0 -3 -13 -22 -30 -40 -16 -19 -67 -80 -112
-136 -83 -101 -105 -121 -95 -83 3 11 1 23 -4 26 -5 3 -6 10 -2 17 3 6 6 29 4
51 -5 97 -1 109 42 161 23 27 49 58 57 68 8 10 25 30 37 44 l21 26 -56 45
c-93 75 -100 85 -99 136 1 26 -2 46 -6 46 -5 0 -5 5 -2 11 4 6 7 26 7 45 0 21
5 34 13 34 7 0 15 -4 17 -9 2 -5 52 -50 113 -101 l110 -92 28 33 c16 19 43 51
60 72 73 88 63 83 90 40 13 -21 32 -53 41 -72 17 -32 17 -34 -1 -51 -10 -10
-29 -32 -43 -50 -14 -18 -33 -40 -43 -50 -16 -16 -15 -19 34 -61 29 -24 57
-49 63 -54 6 -6 47 -40 91 -75 43 -36 86 -72 95 -80 8 -8 29 -26 47 -40 28
-22 173 -258 173 -281 0 -5 5 -9 10 -9 6 0 10 -4 10 -10 0 -5 13 -31 29 -58
l28 -48 -19 -25 c-11 -13 -34 -42 -51 -64 -18 -21 -43 -51 -57 -66 -14 -15
-38 -44 -55 -65 -16 -21 -34 -42 -40 -48 -5 -6 -32 -38 -59 -71 -28 -33 -57
-67 -65 -76 -9 -9 -23 -25 -31 -35 -8 -11 -34 -42 -57 -71 -24 -28 -43 -54
-43 -58 0 -8 12 -19 80 -75 30 -25 57 -47 60 -50 3 -3 30 -25 60 -50 30 -25
60 -49 66 -55 23 -21 112 -96 208 -175 111 -91 91 -91 166 0 19 23 54 63 77
89 23 25 43 49 43 53 0 4 12 20 28 36 15 15 39 43 54 61 14 19 30 31 36 27 9
-5 72 -119 72 -130 0 -2 -6 -11 -12 -18 -7 -7 -35 -40 -62 -73 -28 -33 -57
-68 -65 -77 -9 -9 -28 -31 -43 -50 -15 -18 -39 -46 -53 -63 -14 -16 -25 -32
-25 -35 0 -3 12 -14 26 -25 14 -10 35 -27 47 -38 12 -10 42 -35 66 -55 60 -50
115 -96 121 -102 7 -7 180 -151 204 -170 10 -8 37 -32 60 -52 39 -36 66 -48
66 -30 0 5 21 32 48 60 l47 51 93 -1 c50 0 92 -3 92 -7 0 -3 -17 -25 -38 -47
-20 -23 -46 -52 -56 -65 -11 -13 -32 -39 -48 -57 -15 -18 -28 -37 -28 -42 0
-5 55 -55 123 -112 67 -56 127 -107 133 -113 7 -5 31 -26 55 -45 24 -19 54
-45 67 -58 13 -12 25 -22 28 -22 4 0 50 -39 88 -75 21 -20 72 -55 79 -55 3 0
239 279 367 433 8 10 25 31 38 45 13 15 35 42 50 61 l26 33 -25 22 c-14 11
-48 40 -75 63 l-49 42 128 -1 128 -1 25 29 c13 16 35 41 49 57 14 15 25 29 25
32 0 2 12 17 28 33 15 16 41 46 57 67 31 38 65 78 89 105 7 8 46 56 87 105 40
50 83 101 96 115 21 23 21 25 5 40 -9 8 -100 85 -202 170 -102 85 -194 162
-204 172 -11 10 -22 18 -26 18 -7 0 -6 187 1 194 2 3 25 -14 51 -37 26 -23 60
-52 75 -64 15 -12 42 -34 58 -48 17 -15 72 -61 123 -103 50 -42 92 -80 92 -84
0 -5 5 -8 10 -8 6 0 23 -11 38 -24 100 -90 99 -89 133 -45 13 18 32 41 42 53
11 11 40 47 65 78 26 32 50 58 55 58 4 0 7 5 7 10 0 6 8 18 18 28 36 38 79 89
115 136 20 27 37 45 37 40 0 -5 9 5 19 21 10 17 27 39 37 50 51 55 58 66 48
73 -12 7 -92 74 -129 107 -12 11 -41 36 -65 54 -23 19 -48 40 -54 45 -6 6 -32
28 -58 49 -26 21 -53 43 -60 50 -13 12 -118 100 -152 127 -10 8 -24 21 -31 28
-21 19 -22 19 -90 -64 -22 -26 -48 -56 -57 -66 -10 -10 -18 -20 -18 -23 0 -2
-10 -15 -22 -28 -13 -13 -32 -34 -42 -48 -22 -27 -115 -138 -131 -155 -6 -6
-33 -39 -60 -73 -28 -33 -52 -61 -55 -61 -3 0 -6 49 -5 108 0 112 4 124 51
178 11 12 33 39 49 59 17 21 39 47 50 59 11 12 40 46 65 76 57 71 81 98 103
118 31 29 31 29 -98 137 -33 28 -69 58 -80 68 -11 10 -33 28 -48 40 -94 74
-91 68 -92 172 0 52 2 95 5 95 4 0 15 -8 26 -18 20 -18 124 -105 157 -132 29
-23 103 -86 199 -168 l51 -44 24 29 c13 15 36 42 51 59 15 17 43 50 62 73 19
24 42 51 50 61 8 10 33 39 55 66 22 26 49 58 60 70 41 45 65 74 61 74 -3 0 8
13 22 28 61 65 92 103 92 116 0 7 -16 26 -36 42 -20 16 -44 36 -53 44 -9 9
-36 32 -61 52 -25 20 -58 48 -75 62 -92 79 -120 102 -139 116 -12 8 -33 27
-48 42 -15 16 -30 28 -33 28 -3 0 -22 15 -41 33 -20 17 -48 40 -62 49 l-27 17
-85 -105 c-47 -57 -88 -104 -92 -104 -5 0 -8 -4 -8 -10 0 -5 -8 -18 -17 -28
-19 -20 -100 -115 -120 -141 -15 -20 -15 -21 -17 109 -2 102 2 115 65 185 58
65 159 190 159 196 0 4 -14 18 -31 30 -18 12 -44 34 -59 48 -16 14 -39 35 -52
46 -91 76 -83 60 -83 167 -1 102 -1 101 41 63 6 -5 27 -22 46 -37 19 -15 46
-37 60 -50 14 -13 47 -41 73 -63 27 -22 56 -47 65 -56 33 -32 47 -29 82 14 18
22 40 48 48 57 13 14 63 74 120 143 8 10 23 28 33 39 9 12 17 25 17 30 0 5 5
6 10 3 6 -3 10 -2 10 4 0 5 6 16 13 23 6 7 46 53 87 103 41 49 83 98 92 107
20 20 21 18 -62 88 -29 25 -59 51 -67 58 -7 7 -13 11 -13 9 0 -3 -15 9 -34 26
-18 18 -42 39 -52 47 -30 24 -138 114 -152 128 -8 7 -29 24 -49 39 -19 14 -55
46 -81 69 -25 23 -49 41 -53 38 -4 -2 -56 -62 -114 -132 -59 -70 -110 -128
-114 -130 -4 -1 -7 49 -6 112 l1 114 49 58 c28 33 53 61 57 62 10 5 10 32 1
32 -5 0 -30 20 -58 44 l-49 43 -1 93 c-2 88 -3 94 -28 114 -23 19 -38 21 -131
20 -116 -2 -127 3 -232 103 -13 12 -33 28 -46 37 -25 18 -22 20 -116 -91 l-42
-50 -88 -1 c-48 0 -90 2 -95 5 -6 3 59 89 93 123 28 28 100 120 100 128 0 6
-51 52 -112 104 -62 51 -124 103 -138 114 -14 12 -47 41 -75 64 -27 23 -61 52
-75 63 -110 93 -163 137 -169 136 -3 0 -16 -11 -28 -24z m-1877 -2242 c-3 -7
-13 -13 -23 -13 -13 0 -14 3 -5 12 8 8 8 17 1 30 -5 10 -7 23 -3 29 8 14 36
-41 30 -58z m2080 -1591 c1 -26 2 -65 4 -87 1 -22 2 -46 1 -52 -1 -15 -21 -18
-21 -3 0 5 -13 32 -30 60 -16 28 -30 55 -30 61 0 18 60 82 69 73 3 -3 6 -26 7
-52z"/>
<path d="M4439 7712 c-19 -21 -54 -62 -79 -92 -25 -30 -53 -62 -62 -72 -10
-10 -18 -22 -18 -27 0 -5 -3 -11 -8 -13 -4 -1 -56 -61 -116 -133 -60 -71 -123
-145 -140 -163 l-31 -33 35 -30 c19 -17 54 -47 78 -67 24 -20 54 -46 67 -57
13 -11 41 -34 62 -52 47 -39 82 -68 108 -91 11 -10 43 -36 70 -57 28 -22 55
-45 60 -51 6 -6 30 -27 55 -47 l46 -36 27 29 c15 15 27 31 27 34 0 3 8 14 18
24 9 10 32 36 50 57 80 96 118 140 135 157 9 10 14 18 10 18 -4 0 0 6 8 13 8
6 40 41 70 77 29 36 56 67 59 70 3 3 23 26 43 51 l38 47 -52 43 c-29 24 -62
53 -74 64 -13 11 -40 34 -61 50 -21 17 -42 35 -48 40 -12 12 -195 166 -211
177 -5 5 -24 20 -41 35 -44 39 -68 58 -81 66 -6 4 -26 -10 -44 -31z"/>
<path d="M7695 7364 c-35 -44 -107 -131 -142 -170 -48 -57 -99 -118 -106 -130
-4 -7 -20 -26 -35 -41 -15 -16 -36 -40 -47 -53 -11 -14 -44 -54 -73 -89 l-54
-64 39 -33 c21 -18 45 -39 53 -46 14 -13 55 -47 139 -117 24 -20 53 -45 66
-56 12 -11 40 -34 61 -52 22 -17 53 -43 69 -57 17 -15 43 -37 58 -49 16 -12
43 -34 60 -50 l32 -27 23 27 c13 16 42 50 65 77 23 27 48 58 56 68 7 11 25 32
40 48 33 35 101 117 121 144 8 12 22 28 31 36 8 8 36 40 60 70 24 30 54 66 67
80 l23 25 -48 45 c-27 25 -50 45 -51 44 -4 -3 -33 21 -71 56 -14 14 -51 45
-81 69 -30 25 -59 49 -65 55 -5 6 -32 29 -60 51 -27 21 -52 42 -55 45 -11 14
-144 120 -149 120 -4 -1 -15 -12 -26 -26z"/>
<path d="M5115 7107 c-27 -34 -55 -66 -61 -72 -6 -5 -55 -64 -109 -130 -54
-66 -103 -124 -109 -130 -10 -9 -81 -94 -111 -133 -5 -7 -16 -19 -22 -27 -20
-22 -16 -29 50 -83 34 -28 76 -63 92 -77 39 -34 59 -50 125 -105 30 -25 57
-47 60 -50 3 -3 21 -18 40 -34 19 -15 55 -45 80 -66 25 -22 58 -50 74 -64 16
-13 34 -22 40 -20 6 3 64 69 129 147 64 78 131 158 147 177 17 19 45 53 63 74
17 22 39 47 47 56 8 9 34 39 57 66 l41 51 -26 19 c-14 10 -30 24 -36 29 -6 6
-38 33 -71 60 -33 28 -69 59 -81 70 -12 11 -35 30 -50 42 -16 12 -43 34 -61
50 -18 15 -45 38 -60 50 -15 12 -37 30 -48 40 -24 23 -145 123 -148 123 -1 0
-24 -28 -52 -63z"/>
<path d="M1928 6132 c-54 -64 -109 -130 -123 -147 -15 -16 -39 -45 -53 -64
-15 -18 -36 -43 -47 -56 -50 -57 -111 -130 -124 -149 -8 -12 -21 -25 -28 -29
-15 -9 -4 -21 67 -76 18 -14 46 -37 61 -51 31 -29 60 -53 113 -95 21 -16 54
-45 74 -63 21 -18 58 -49 85 -69 26 -21 47 -41 47 -45 0 -4 4 -8 10 -8 5 0 22
-12 38 -27 73 -69 70 -69 105 -26 18 20 42 48 55 61 12 12 22 25 22 28 0 3 12
19 28 35 53 59 62 69 62 75 0 3 8 13 19 22 10 10 74 85 143 167 113 136 123
151 109 166 -9 8 -43 37 -76 65 -33 27 -62 51 -65 54 -6 7 -132 113 -145 123
-5 4 -21 17 -35 28 -152 128 -233 194 -238 196 -4 2 -51 -50 -104 -115z"/>
<path d="M7755 6024 c-38 -47 -77 -93 -85 -102 -8 -9 -33 -39 -55 -67 -22 -27
-47 -56 -55 -65 -8 -8 -31 -35 -50 -59 -40 -49 -62 -75 -93 -111 -12 -14 -32
-38 -44 -53 -25 -33 -29 -27 57 -97 30 -25 64 -53 75 -63 11 -10 59 -50 108
-89 48 -39 87 -75 87 -80 0 -4 5 -8 11 -8 6 0 16 -6 23 -12 7 -7 37 -33 66
-58 29 -25 58 -50 64 -56 6 -6 24 -19 40 -29 27 -18 29 -18 41 -1 7 9 33 40
58 69 24 29 95 113 157 187 132 158 185 222 222 264 15 17 28 33 28 36 0 3
-14 16 -31 30 -17 14 -43 35 -57 48 -15 13 -58 49 -97 80 -38 31 -74 62 -80
68 -24 26 -303 254 -311 253 -5 0 -40 -38 -79 -85z"/>
<path d="M1405 5508 c-22 -28 -49 -60 -60 -72 -11 -12 -44 -52 -74 -89 -30
-37 -58 -67 -63 -67 -4 0 -8 -6 -8 -14 0 -8 -4 -16 -8 -18 -5 -1 -56 -59 -113
-128 -57 -69 -107 -128 -112 -131 -7 -5 30 -40 142 -134 20 -16 39 -34 43 -40
4 -5 8 -7 8 -3 0 3 12 -6 28 -20 15 -15 49 -45 76 -67 28 -22 58 -48 68 -57
10 -10 23 -18 28 -18 6 0 10 -4 10 -9 0 -5 26 -28 57 -52 31 -24 67 -54 79
-66 13 -13 27 -23 32 -23 4 0 30 27 58 61 27 33 58 70 69 83 12 12 39 45 60
72 22 27 42 51 45 54 3 3 30 34 60 70 30 36 61 73 70 82 8 9 20 23 25 30 6 7
30 37 55 66 l44 53 -31 27 c-47 42 -129 112 -233 198 -52 44 -106 89 -120 101
-22 18 -137 114 -180 149 -13 10 -22 4 -55 -38z"/>
<path d="M2080 4903 c-30 -36 -60 -71 -65 -77 -6 -6 -30 -36 -54 -66 -25 -30
-54 -65 -65 -77 -12 -12 -26 -28 -31 -35 -6 -7 -55 -66 -109 -131 l-99 -119
39 -35 c21 -19 52 -44 67 -56 15 -12 38 -31 51 -42 24 -21 92 -79 166 -140 25
-21 47 -40 50 -44 3 -4 14 -14 26 -22 26 -18 109 -87 140 -116 29 -29 46 -29
64 -2 8 12 22 29 30 38 9 9 61 70 115 136 55 66 102 122 105 125 3 3 51 60
107 126 l103 122 -62 53 c-33 30 -70 61 -82 69 -12 8 -25 19 -31 25 -5 7 -66
58 -135 115 -69 57 -129 108 -135 114 -5 7 -28 25 -50 41 -21 17 -47 38 -57
48 -10 9 -21 17 -25 17 -5 0 -33 -30 -63 -67z"/>
<path d="M7810 4678 c-74 -88 -144 -171 -155 -185 -11 -14 -28 -35 -38 -47
-10 -11 -36 -41 -57 -66 -21 -25 -50 -58 -64 -75 -30 -35 -33 -61 -8 -69 9 -4
35 -23 57 -44 22 -20 65 -57 95 -82 30 -25 66 -54 80 -67 27 -23 83 -70 170
-143 30 -25 70 -59 90 -76 36 -31 70 -49 70 -36 0 4 13 21 30 39 16 17 53 60
82 95 28 35 59 70 67 79 9 9 32 36 51 60 41 50 136 165 188 227 59 69 61 62
-46 151 -53 45 -108 92 -122 105 -14 12 -45 38 -70 57 -24 19 -56 46 -72 62
-15 15 -30 27 -33 27 -3 0 -13 8 -23 18 -30 28 -86 75 -123 103 l-35 27 -134
-160z"/>
<path d="M1527 4246 c-9 -13 -22 -29 -29 -37 -7 -8 -69 -81 -138 -164 -68 -82
-127 -152 -130 -155 -18 -17 -150 -180 -150 -185 0 -8 15 -22 75 -70 27 -22
70 -59 95 -82 25 -24 48 -43 52 -43 4 0 18 -10 31 -22 29 -29 60 -55 172 -147
50 -41 95 -79 100 -86 6 -6 19 -17 30 -23 18 -9 27 -3 70 50 28 33 55 66 62
73 6 6 35 41 64 76 29 35 58 69 64 75 5 6 21 26 35 43 14 17 34 41 45 54 11
13 39 45 62 73 23 27 53 63 67 79 29 34 31 42 13 58 -55 51 -137 117 -146 117
-6 0 -11 4 -11 8 0 4 -44 44 -97 88 -53 43 -101 84 -107 89 -64 59 -187 155
-199 155 -8 0 -22 -11 -30 -24z"/>
<path d="M2240 3681 c-20 -24 -102 -120 -115 -135 -14 -16 -107 -127 -125
-150 -8 -10 -25 -29 -37 -42 -13 -13 -23 -26 -23 -29 0 -3 -8 -13 -17 -23 -21
-21 -49 -55 -112 -130 -42 -51 -43 -54 -24 -67 11 -7 33 -26 50 -42 16 -15 49
-44 73 -63 24 -19 56 -46 71 -60 15 -14 40 -35 56 -47 15 -12 38 -30 49 -40
12 -10 43 -36 70 -58 26 -22 52 -44 58 -50 6 -5 38 -32 70 -59 l59 -50 36 40
c48 53 133 153 149 176 8 10 23 29 35 41 12 13 36 40 52 62 17 21 37 46 45 54
9 9 32 36 52 61 20 25 51 61 68 80 56 63 56 64 -7 114 -32 24 -71 56 -88 71
-50 43 -115 98 -215 181 -108 90 -147 123 -170 144 -41 38 -45 39 -60 21z"/>
<path d="M4889 2609 c-13 -18 -36 -46 -51 -63 -40 -46 -49 -56 -98 -116 -25
-30 -47 -57 -50 -60 -3 -3 -28 -32 -55 -65 -28 -33 -58 -69 -68 -80 -10 -11
-44 -51 -75 -89 l-56 -68 35 -32 c19 -17 54 -47 77 -66 24 -19 54 -44 66 -55
12 -11 42 -36 66 -55 24 -19 48 -39 54 -45 6 -5 27 -23 47 -40 107 -89 146
-122 167 -142 12 -13 27 -23 31 -23 5 0 14 -7 21 -15 14 -16 14 -17 71 55 20
25 45 55 55 66 11 12 33 38 49 59 17 20 37 45 46 54 8 9 39 44 67 78 28 34 56
69 64 78 7 9 18 21 23 28 6 7 34 40 63 73 28 34 52 66 52 71 0 5 -78 75 -172
154 -95 79 -175 146 -178 149 -3 3 -21 19 -41 35 -20 17 -57 48 -84 70 -26 22
-57 48 -68 58 -27 23 -30 22 -58 -14z"/>
<path d="M5584 2024 c-16 -20 -38 -46 -49 -58 -74 -83 -370 -437 -387 -463
-16 -25 -16 -26 12 -49 15 -13 30 -24 33 -24 4 0 17 -10 29 -22 13 -13 46 -42
73 -65 28 -23 60 -50 72 -60 12 -10 41 -34 64 -53 24 -19 50 -42 59 -50 9 -8
38 -33 65 -55 60 -48 102 -84 127 -107 10 -10 20 -18 22 -18 3 0 126 142 206
239 45 54 63 75 110 131 45 53 63 74 110 131 19 23 41 48 48 55 14 15 16 34 2
34 -5 0 -17 8 -27 18 -10 10 -45 40 -78 68 -33 27 -66 54 -73 61 -7 7 -34 29
-60 50 -26 21 -49 40 -52 43 -5 5 -99 85 -159 135 -13 11 -44 37 -68 58 -24
20 -46 37 -48 37 -1 0 -16 -16 -31 -36z"/>
<path d="M4325 1932 c-11 -9 -38 -40 -60 -67 -21 -28 -42 -52 -45 -55 -6 -6
-147 -175 -170 -203 -8 -11 -22 -27 -31 -36 -8 -9 -50 -57 -92 -107 l-76 -91
22 -19 c12 -11 54 -45 92 -77 39 -32 79 -66 90 -75 45 -40 150 -128 163 -137
7 -5 21 -17 30 -26 9 -8 44 -37 77 -65 33 -27 68 -57 79 -66 26 -23 27 -23 56
13 14 17 30 36 36 43 6 6 32 38 58 70 65 79 88 106 109 128 9 10 17 20 17 23
0 3 14 19 30 35 17 16 30 32 30 35 0 3 8 13 18 23 50 53 152 179 152 188 0 5
-20 24 -43 41 -23 18 -56 45 -74 60 -17 16 -40 35 -50 43 -86 69 -130 107
-144 122 -9 10 -20 18 -25 18 -5 0 -16 8 -25 18 -18 20 -121 110 -152 131 -12
9 -29 23 -37 33 -14 16 -16 16 -35 0z"/>
</g>
</svg>
