<svg xmlns="http://www.w3.org/2000/svg" width="341.333" height="341.333" version="1.0" viewBox="0 0 256 256"><path d="M105.5 6.6c-32.9 2.7-86.2 9.7-88 11.6-1.2 1.2-2.9 27.1-2.8 43.3 0 37.7 6.8 68.5 21.8 99 5.1 10.5 16.3 28.3 21.9 35l2.5 3-1.4-5.5c-.8-3-1.5-9.5-1.5-14.4 0-8.3-.2-9.2-3.5-14.7C38 136.8 29 102.4 29 66.3c0-13.5 1.7-35.3 2.9-36.6 1-1 27.4-5.3 49.1-7.8 22.2-2.6 63-3.2 83-1.1 13.9 1.4 44.4 5.6 53.2 7.3 5.4 1.1 5.6 1.2 6.2 4.8.3 2 .9 14.2 1.2 27.1l.7 23.4 3.4-3.9c4.5-5.2 10.8-18 12.4-25 1-4.5 1-8.6 0-20.3-.7-8.1-1.6-15-2-15.5-1.6-1.6-39.5-7.5-66.1-10.2-14.9-1.6-57.2-2.7-67.5-1.9z"/><path d="M167 40.5c-1.9 1.9-8.8 3.1-21.5 4C107.4 46.9 93 51.4 93 60.6c0 1.6-1.1 2.6-4.6 3.9-6 2.3-11 6.7-12.4 11.1-1.6 4.8-.4 13.5 2.4 17.6 2.8 4.3 4.9 4.6 6.2 1 1.6-4.2 7.1-7.9 14.5-9.8 12-3.1 30.6-.3 38.2 5.7 6.3 4.8 7.3 17.6 2.4 28.3-1.4 3.1-2.2 5.6-1.6 5.6 1.5 0 27.4-4.9 32.7-6.1 2.6-.7 5.1-1.5 5.5-1.9 1.4-1.2-1.1-24-3.7-34.3-1.4-5.3-4-13.5-5.9-18.3l-3.5-8.6 2.4-3.5c3.6-5.4 4.8-14.3 1.4-10.8zM129.4 59c.4.4-.1 1.1-1.3 1.5-1.2.3-2.8 1.9-3.6 3.4-2 4-6.6 5.7-11.4 4.2-2.1-.6-4.3-1.7-4.9-2.4-.9-1-.2-1.3 2.8-1.4 4.5-.2 6.9-1.3 10.5-4.9 2.5-2.5 5.4-2.6 7.9-.4z"/><path d="M245.4 54.7c-.4 16.9-13.4 35.8-34.6 50.1-15.5 10.4-28.3 15.4-49.8 19.2-30.4 5.3-35.1 6.3-44.9 9.6-14.3 4.7-21.3 8.7-29.8 16.8-9.4 8.9-14.5 18.5-16.2 30.7-2.3 15.7 1.6 28.5 11.5 38.9 8.8 9.2 31.2 25.5 42.9 31.2l4.3 2.1 8.7-4.9c10-5.7 27.7-18.6 37.3-27.4 8.4-7.6 21.8-22.5 27.9-31.1 2.5-3.6 6.3-7.5 8.2-8.6 5.9-3.4 12.7-10 17-16.4 2.3-3.4 4.1-6.7 4.1-7.4 0-.8-2.3-.1-6.2 2-14 7.4-33.3 13.5-56.8 18-23.3 4.5-36.7 7.5-44.7 10.1-9.7 3.2-22.7 9.3-27.3 12.9l-3.5 2.7 13-.6c17.9-.9 30.1-2.2 50.3-5.2 9.6-1.4 17.6-2.4 17.8-2.1.8.8-16.1 16.1-24.2 21.9-4.3 3.1-11.3 7.7-15.5 10.1l-7.7 4.5-6.3-3.7c-3.5-2-10-6.1-14.4-9.1-18-12.1-22.9-19.8-20.5-31.9 2.7-13.3 10.4-20 33-28.6 9.6-3.7 34.1-10.8 51.4-15 52.7-12.8 80.7-37.5 80.6-70.9 0-5.7-2.1-16.4-4.1-21.4-1.4-3.3-1.4-3.2-1.5 3.5z"/><path d="M214.4 63.2c-4.5 9.7-15.7 20.6-26.4 25.8l-8.5 4 .4 10.8c.1 5.9.5 10.9.6 11.1.2.2 3.4-1 7-2.7 12.2-5.8 22.3-17.5 26.9-31.4 2.2-6.5 4.7-23.8 3.4-23.8-.2 0-1.8 2.8-3.4 6.2zM107.5 88.9c6.1 2.7 9.5 7.3 9.5 12.6 0 7.7-1.2 9-15.3 16.2-10.3 5.3-14.6 8.2-20.7 14-6.6 6.2-8.3 8.5-10.8 14.6-6.6 15.8-7.9 35.6-3.3 49.2 1.1 3.3 1.9 4.9 1.7 3.5-3.7-22 .8-37.5 14.4-50.3 8.7-8.2 23.7-15.9 40.4-20.8l11.5-3.3 1.6-4.3c2.4-6.3 3.6-16.1 2.4-20.5C136.8 92 126.1 87 111.4 87h-7.9l4 1.9zM245.1 110.6c-1.3 1.9-4.9 5.8-8 8.6-16.5 15.1-41.4 26-82.1 35.9-11.3 2.7-24 5.8-28.3 6.9-20.8 5.3-32.7 16.4-34.4 32.1l-.6 6.1 4.9-4.9c11.1-11 28.8-17.3 68.2-24.3 43.9-7.7 69.1-22.1 79.8-45.5 2.2-4.8 4.7-18.5 3.3-18.5-.2 0-1.5 1.6-2.8 3.6z"/></svg>