<svg xmlns="http://www.w3.org/2000/svg" width="77" height="24" fill="none"><path fill="#1f0256" d="M35.148 16.738a4.2 4.2 0 0 1-3.06 1.283 3.53 3.53 0 0 1-2.604-1.033c-.619-.646-.975-1.567-.975-2.666 0-2.199 1.432-3.703 3.58-3.703a3.91 3.91 0 0 1 3.034 1.377l1.859-1.644c-1.211-1.47-3.176-2.229-5.042-2.229-3.652 0-6.24 2.517-6.24 6.22 0 1.831.643 3.374 1.728 4.463s2.631 1.728 4.415 1.728c2.317 0 4.166-.94 5.203-2.122zM38.727 3.428h2.766V20.34h-2.766zM54.818 15.283q.068-.554.076-1.11c0-3.507-2.296-6.047-5.847-6.047a5.74 5.74 0 0 0-4.215 1.725c-1.038 1.089-1.66 2.631-1.66 4.47 0 3.749 2.642 6.216 6.146 6.216 2.35 0 4.043-.951 5.058-2.242l-1.812-1.605-.09-.076a3.75 3.75 0 0 1-3.008 1.406c-1.778 0-3.061-1.037-3.427-2.737zm-8.733-2.22a3.37 3.37 0 0 1 .737-1.449 3.08 3.08 0 0 1 2.368-.996c1.58 0 2.57.988 2.911 2.445zM63.445 8.09v3.084a13 13 0 0 0-.838-.05c-2.094 0-3.282 1.505-3.282 3.479v5.736h-2.763V8.261h2.763v1.83h.025c.938-1.283 2.284-1.997 3.75-1.997zM69.887 15.281l-1.998 2.222v2.837h-2.764V3.428h2.764v10.374L72.822 8.3h3.283l-4.341 4.86 4.417 7.18h-3.11l-3.133-5.059z"/><path fill="url(#a)" d="m19.116 3.16-2.88 2.881a.57.57 0 0 1-.701.084 6.854 6.854 0 0 0-10.39 5.647 6.87 6.87 0 0 0 .979 3.764.57.57 0 0 1-.084.699l-2.88 2.88a.57.57 0 0 1-.865-.063A11.994 11.994 0 0 1 19.051 2.295a.57.57 0 0 1 .065.866"/><path fill="#1f0256" d="m19.114 20.829-2.881-2.88a.57.57 0 0 0-.7-.085 6.85 6.85 0 0 1-7.081 0 .57.57 0 0 0-.7.084l-2.881 2.88a.57.57 0 0 0 .062.877 11.99 11.99 0 0 0 14.114 0 .57.57 0 0 0 .066-.876M11.997 15.422a3.427 3.427 0 1 0 0-6.854 3.427 3.427 0 0 0 0 6.854"/><defs><linearGradient id="a" x1="16.409" x2="-7.885" y1="-1.759" y2="22.537" gradientUnits="userSpaceOnUse"><stop stop-color="#17ccfc"/><stop offset=".5" stop-color="#5d31ff"/><stop offset="1" stop-color="#f35aff"/></linearGradient></defs></svg>