<svg xmlns="http://www.w3.org/2000/svg" preserveAspectRatio="xMinYMin meet" viewBox="0 0 256 304"><path fill="#EE4323" d="M13.1 287.3c-5.2 0-6.7-3-6.7-7.6q0-2.3.4-5c1.2-7.8 4-12.3 10.7-12.3q6.7 0 6.7 5.7v1.8h4.5v-2c0-5.4-3.2-10.5-11.2-10.5-11 0-15.5 5.9-17.1 17.5q-.4 2.3-.4 4.6c0 6.9 2.7 13.1 12.3 13.1 7.4 0 11.7-3.6 14.3-8l-4.3-2.9c-2.8 4.4-5.8 5.6-9.2 5.6m29.6-21.7c-8.8 0-12.6 4.5-13.8 13.5l-.3 3c0 5.9 2.7 10.5 10.2 10.5 8.7 0 12.6-4.7 13.9-13.5l.2-3.2c0-6-2.8-10.3-10.2-10.3m3.6 13.5c-1 6.5-3 8.4-6.8 8.4-3 0-4.6-1.2-4.6-5l.3-3.4c1-6.5 2.8-8.4 6.7-8.4 3.1 0 4.7 1.2 4.7 5.1zM75 257.8l-1.5 8.7c0 .8 0 .5.3 1.2a11 11 0 0 0-5.5-1.7c-7.9 0-12.3 3.6-13.7 13.5l-.2 3.2c0 7.2 4.2 9.9 10 9.9 2.4 0 4.7 0 6.6-1.5l.4 3H76l5.3-36.3zm-4.5 28.4a11 11 0 0 1-5.5 1.5c-3.4 0-4.4-1.8-4.4-4.7q0-1.6.4-3.7c1-7.5 3.5-8.8 6.6-8.8q3 0 5 1.1zM95 265.6c-8.7 0-12.7 4.2-14 13.5l-.3 3.2c0 6.4 3.2 10.3 10.4 10.3q8.5-.1 12-6.6l-4.8-2a7 7 0 0 1-6.5 3.5c-3.5 0-4.9-.9-4.9-4 0-.6 0-1.5.2-1.5h17q.5-3.6.6-5.6c0-4.7-1.8-10.8-9.7-10.8m3.3 11.5H87.9c1-2.4 2.8-6.1 6.3-6.1q4.2.1 4.2 4.4zm24.6-12 .5-4.9h-13.3l-.6 4.9h3.5l-3.8 24.1h-3.5l-.5 4.8h13.3l.6-4.8h-3.5l3.8-24.1zm27 7.2 1.8-4.8H147l-3.3.7a13 13 0 0 0-6.7-2.1c-6.8 0-12.6 3.3-12.6 10.7q.2 3.1 1.7 4.9c-1.4.8-2.7 2-2.7 3.7q0 1.2.9 2.3a9 9 0 0 0-4.6 7.8c0 6.4 6.7 7.8 11.8 7.8 6.4 0 14-1.5 14-9.7 0-2.8-1.7-5-6.7-6l-9.2-1.6q-1.3-.3-1.2-1 0-1 1-1.1h.7q1.9.6 4.1.5c6.6 0 12.5-2.8 12.5-10.2q0-1.3-.7-2.9 1.4.8 2.3 1zM137 292q2.7.4 2.5 2.2c0 3.8-4.1 4.3-7.1 4.3-4.6 0-6.3-1.1-6.3-3.5 0-2.2.6-3.1 2-4.7zm-1.9-12.4q-4.1.1-4.2-3.4.1-5.4 5.5-5.5 4.3 0 4.3 3.5-.1 5.3-5.6 5.4m31.8-13.9c-2.7 0-5 1.3-8 3.7l-.4-1.8h-5.2l-3.6 26.5h6.2l2.8-20.1c1.8-1.1 4.1-2.8 6-2.8q3.5 0 3.3 3.3c0 .6 0 2-.2 2.7l-2.3 17h6.3l2.3-17.2.2-2.9c0-4.5-2.1-8.4-7.4-8.4m19.4 21.8v-.7l2.7-19.2h-10.4l-.7 4.8h4.6q-.6.1-.6.8l-2 12.8v2.5c0 3.3 1.7 5.6 5.4 5.6h3.2l.7-4.8h-2c-.7 0-1-1.3-1-1.8m4-29.6h-6.1c-.4 0-.4-1.4-.5-.9l-.8 6.8c0 .4 0 1.4.3 1.4h6.2c.4 0 .4-1.7.4-2.1l.9-5.3c0-.4 0 .1-.4.1m12.9 29.7q-2.4 0-2.4-2v-.1l2-13h7.3l2.1-5h-8.7L205 257l-6.6 2-1.2 8.6h-3.8l-.7 4.8h4.4c-.4 2.4-.8.9-.8 1.3l-1.8 11.5v1.4c0 4.4 3.3 6.1 7.2 6.1q5.5 0 9-3l-2.9-3.6a8 8 0 0 1-4.6 1.5m23-21.9c-8.6 0-12.7 4.2-14 13.5l-.3 3.2c0 6.4 3.3 10.3 10.5 10.3q8.4-.1 12-6.6l-4.8-2a7 7 0 0 1-6.5 3.5c-3.5 0-5-.9-5-4l.2-1.5h17q.5-3.6.6-5.6c0-4.7-1.8-10.8-9.7-10.8m3.3 11.5H219c1-2.4 2.8-6.1 6.4-6.1q4.2.1 4.2 4.4zm23.8-11.5q-3.4.1-6.5 3.4l-.4-1.5h-5.2l-3.6 26.5h6.3l2.8-20.5a11 11 0 0 1 5.3-1.9h3.3l.8-5.5q-1.5-.4-2.8-.5M92.5 238.8c-14.3-6.2-27.7-22-27.7-38 0-17.6 11-32.5 24.9-42.3-1.7 6.3-2.6 12 1.6 17.7a17 17 0 0 0 16.8 6.4c14.8-3.3 15.5-19.5 6.7-29-8.6-9.4-17-20-13.7-33.6a35 35 0 0 1 11.1-17.8c-4 10.7 7.5 21.3 15.2 26.6 13.2 9.1 27.8 16 40 26.7 12.8 11.3 22.2 26.5 20.3 44.2-2 19.1-17.3 32.4-34.3 39.1 36-8 73.3-35.9 74-75.9.7-32.9-21.9-58.2-49.8-72.7l-1.5-.8q1.1 2.9 1 5l.5-3.3a16 16 0 0 1-.6 3.9v-.7a16 16 0 0 1-2 5l.4-.5c-5.6 9.2-20.6 11.3-28.1 1.7-12-15.4.3-32 2-48.3 2.1-20.5-10.7-40.3-26.6-52.2 8.7 14.2-2.8 32.9-12 43.4-9 10.1-19.8 18.6-29.7 27.8a248 248 0 0 0-29.5 32c-17.5 23.3-28.2 52.5-20.3 81.6s33 47.5 61.3 54"/></svg>