<svg xmlns="http://www.w3.org/2000/svg" data-name="Layer 1" viewBox="0 0 182.57 36.33"><path d="m53.06 26.79-.56.57a15.93 15.93 0 0 1-10.93 5 10 10 0 0 1-10.34-10.4c0-6 4.24-10.39 10.09-10.39a16.67 16.67 0 0 1 10.22 4l.56.49 5.61-5.86-.63-.54a25.78 25.78 0 0 0-16.36-5.91 18.44 18.44 0 0 0-15.37 7.68H15l-.6 5.09h8.5a18 18 0 0 0-.59 2.86H9.61L9 24.46h13.31a18.6 18.6 0 0 0 .57 2.86H3.77l-.61 5.09H25.3c3.29 4.74 8.9 7.68 15.67 7.68a25.4 25.4 0 0 0 17.19-6.93l.59-.56Z" style="fill:#fff" transform="translate(-3.16 -3.75)"/><path d="M5.01 15.62H1.26l-.6 5.09H4.4z" style="fill:#fff"/><path d="M88 26.14a13.3 13.3 0 0 1-9.06 3.66c-5.92 0-9.82-4.23-9.82-9.47a9.36 9.36 0 0 1 9.68-9.44A13.66 13.66 0 0 1 87.41 14L85 16.56a9.55 9.55 0 0 0-5.84-2.29 5.82 5.82 0 0 0-5.92 6.09 5.87 5.87 0 0 0 6.06 6.08 9.2 9.2 0 0 0 6.25-2.83Zm19.44-14.71v11.41c0 4.45-3.44 7-8.16 7s-8.11-2.51-8.11-7V11.43h3.93v11.41c0 2.35 1.88 3.6 4.18 3.6s4.23-1.25 4.23-3.6V11.43Zm5.29 17.82V11.43h9.88a7 7 0 0 1 5.39 1.94 5.36 5.36 0 0 1 1.47 3.69 5.47 5.47 0 0 1-3.6 5l4.13 7.19h-4.47l-3.6-6.55h-5.3v6.55Zm3.9-14.51v4.66H123a2.38 2.38 0 0 0 2.48-2.34 2.17 2.17 0 0 0-.63-1.56 2.66 2.66 0 0 0-2.13-.76ZM134 29.25V11.43h3.91v17.82Zm7.44-17.82h16.81v3.39h-6.44v14.43h-3.91V14.82h-6.46Zm35.69 0-7.07 9.69v8.13h-3.93v-8.13L159 11.43h4.85l4.34 6.2 4.32-6.2Zm.94-.35a4 4 0 0 1 1.12-2.86 3.74 3.74 0 0 1 5.43 0 4 4 0 0 1 1.11 2.86 4 4 0 0 1-1.12 2.92 3.72 3.72 0 0 1-5.42 0 4 4 0 0 1-1.12-2.92m.65 0a3.4 3.4 0 0 0 .93 2.42 3 3 0 0 0 2.26 1 3 3 0 0 0 2.24-1 3.37 3.37 0 0 0 .93-2.41 3.34 3.34 0 0 0-.93-2.4 3 3 0 0 0-2.24-1 3 3 0 0 0-2.26 1 3.34 3.34 0 0 0-.93 2.39m2.4.41v1.82h-.8V8.72h1.51a2.06 2.06 0 0 1 1.29.36 1.21 1.21 0 0 1 .46 1 1 1 0 0 1-.17.59 1.4 1.4 0 0 1-.52.42 1 1 0 0 1 .51.43 1.35 1.35 0 0 1 .16.69v.7a.8.8 0 0 0 .08.29v.08h-.83a1.1 1.1 0 0 1-.06-.33v-.74a.8.8 0 0 0-.18-.57.83.83 0 0 0-.6-.18Zm0-.7h.82a1.1 1.1 0 0 0 .6-.18.55.55 0 0 0 .25-.47.68.68 0 0 0-.22-.56 1.34 1.34 0 0 0-.74-.15h-.71Z" style="fill:#fff" transform="translate(-3.16 -3.75)"/></svg>