<svg xmlns="http://www.w3.org/2000/svg" fill="none" viewBox="0 0 456 456"><path fill="#512BD4" d="M0 0h456v456H0z"/><path fill="#fff" d="M81.3 291.3q-5 0-8.2-3.2a11 11 0 0 1-3.4-7.8q-.1-4.7 3.4-8 3.3-3.3 8.2-3.3t8.3 3.3 3.4 8q0 4.5-3.4 7.8t-8.3 3.2m128.9-1.8h-21l-55.2-87a39 39 0 0 1-3.5-7h-.5q.7 3.9.7 16.3v77.7H112V171h22.4l53.3 85a90 90 0 0 1 4.4 7.3h.3a108 108 0 0 1-.8-16V171h18.5zm90.2 0h-64.8V171h62.3v16.7h-43.2v33.5h39.8V238h-39.8v35h45.7zm92.3-101.8h-33.2v101.8h-19.2V187.7H307V171h85.6z"/></svg>