<svg width="512" height="512" fill="none" xmlns="http://www.w3.org/2000/svg"><path fill-rule="evenodd" clip-rule="evenodd" d="M424.404 470.816C478.089 423.889 512 354.905 512 278c0-141.385-114.615-256-256-256S0 136.615 0 278c0 74.658 31.958 141.851 82.94 188.646l.237-1.646 335.967-110 5.26 115.816Z" fill="#333"/><path d="M189.915 52.741 144.5 46l6.803-2.093a36.518 36.518 0 0 0 11.359-5.83l1.068-.812a31.22 31.22 0 0 0 11.935-19.92l.508-3.175a31.147 31.147 0 0 0-.083-10.326c-.256-1.45 1.189-2.612 2.55-2.051l1.858.765a49.545 49.545 0 0 1 6.744 3.4l7.723 4.662a94.924 94.924 0 0 1 26.515 23.828l5.136 6.757a34.124 34.124 0 0 0 15.819 11.537L246 54l-18.726.749c-12.489.5-24.996-.173-37.359-2.008Z" fill="#CCC"/><path d="m178.321 93.006 13.469-24.622a.859.859 0 0 0 .022-.78l-4.592-9.668A17.403 17.403 0 0 0 171.5 48l-1.27-.044a119.928 119.928 0 0 1-26.042-3.787l-1.684-.438a103.33 103.33 0 0 1-20.211-7.585l-2.847-1.423a71.663 71.663 0 0 1-12.121-7.665l-3.775-2.954a2.523 2.523 0 0 0-3.59.495 25.229 25.229 0 0 0-4.72 12.055l-.686 6.003a47.984 47.984 0 0 0-.122 9.698l1.671 18.804a81.718 81.718 0 0 0 14.02 39.006l1.702 2.48a55.876 55.876 0 0 0 8.481 9.724c.45.409 1.023.661 1.63.715 23.093 2.072 45.258-9.736 56.385-30.078Z" fill="#CCC"/><path d="m127.378 123.538 15.998-6.925c7.062-3.056 9.212-12.036 4.3-17.96-3.993-4.815-11.096-5.573-16.015-1.708l-3.794 2.98a16.501 16.501 0 0 0-2.48 2.411l-9.124 10.948a3.872 3.872 0 0 0 .237 5.216l2.818 3.221a7.01 7.01 0 0 0 8.06 1.817Z" fill="#EDEDED"/><path d="M147.988 44.844 147.5 45l1.462.465a76.422 76.422 0 0 0 19.536 3.511c.332.016.665-.023.985-.114L172.5 48l1.5-.5-9.581-2.083a8.01 8.01 0 0 1-3.428-1.674 1.603 1.603 0 0 1 .011-2.472l1.421-1.163A15.016 15.016 0 0 0 166.444 35a58.451 58.451 0 0 1-18.456 9.844Z" fill="#B2B2B2"/><path d="M202.776 219.428 72.29 452.693a2 2 0 0 1-3.16.438L66.5 450.5l-11-12.5-7.011-9.073a200.05 200.05 0 0 1-17.748-27.303l-.998-1.849a200 200 0 0 1-13.732-31.741L12.5 357.5a142.013 142.013 0 0 1-3.554-58.753l.124-.828a145.964 145.964 0 0 1 6.123-25.29L21 255.5l4.333-9.115a127.507 127.507 0 0 1 27.334-37.694l5.505-5.229A96.757 96.757 0 0 1 98.5 180.5a69.832 69.832 0 0 1-10.785 2.147l-7.215.853-5.5.5-6 1-6 .561-4 .439-2.881.18c-.926.058-1.361-1.123-.62-1.68h.001l4.027-1.93A67.965 67.965 0 0 0 90 153.5l4.448-6.938a67.13 67.13 0 0 1 20.668-20.53l1.717-1.084a49.089 49.089 0 0 1 9.872-4.785l15.741-5.556a11.015 11.015 0 0 0 6.457-6.046l.24-.561a8.6 8.6 0 0 0-2.12-9.751l-2.767-2.516a3.663 3.663 0 0 1-.464-.51L126 71.5l-14.197-19.569a24.913 24.913 0 0 1-4.709-13.248.996.996 0 0 1 1.426-.953l15.361 7.373a60.904 60.904 0 0 0 42.656 3.776 60.91 60.91 0 0 1 10.087-1.904l7.051-.724a144.71 144.71 0 0 1 52.841 4.344L238 51l16.798 6.047A76.626 76.626 0 0 1 300.5 102l3.522 13.734a55.777 55.777 0 0 0 22.099 31.879l8.963 6.257a98.895 98.895 0 0 0 12.369 7.357l19.836 9.918a1.586 1.586 0 0 1 .554 2.378 52.874 52.874 0 0 1-20.984 16.482l-11.488 5.003a100.949 100.949 0 0 1-14.109 4.937l-8.44 2.267A139.822 139.822 0 0 1 276.546 207h-20.213c-4.185 0-8.332-.787-12.225-2.321-15.527-6.117-33.185.184-41.332 14.749Z" fill="#fff"/><path d="m271.185 135.316 8.802.102c1.195.014 1.465-1.67.325-2.03a34.703 34.703 0 0 1-5.433-2.238l-6.871-3.54a71.62 71.62 0 0 1-13.064-8.657l-1.352-1.126a55.467 55.467 0 0 1-8.262-8.545l-1.562-2.009c-.534-.687-1.634-.268-1.576.6 1.02 15.313 13.647 27.265 28.993 27.443Z" fill="#666"/><path d="M82.223 456.395 231.313 323.4a200.018 200.018 0 0 0 36.277-42.95l.91-1.45a59.395 59.395 0 0 0 6.047-31.707l-1.307-15.035a42.4 42.4 0 0 0-10.867-24.848 1.698 1.698 0 0 0-.916-.521L237.5 202a107.44 107.44 0 0 0-53.567-2.2l-.933.2-13.94 3.259a172.545 172.545 0 0 0-100.848 67.333l-.615.855a162.651 162.651 0 0 0-17.011 29.915l-.821 1.883a155.464 155.464 0 0 0-11.297 84.74l1.383 9.402a94.598 94.598 0 0 0 23.858 50.16l7.609 8.3a7.775 7.775 0 0 0 10.905.548Z" fill="#CCC"/><path d="m212.749 278.858-.482.275c-12.581 7.189-19.349 20.759-18.687 35.234.188 4.117 4.313 7.888 8.278 6.765l7.305-2.07a67.413 67.413 0 0 0 25.626-13.788L256 287l6.292-4.657a168.79 168.79 0 0 1 127.462-30.938c1.386.225 1.43 2.202.056 2.489L384.5 255l-2.407.842a25.61 25.61 0 0 0-12.303 9.18c-.576.797.192 1.868 1.132 1.579l1.741-.536a81.766 81.766 0 0 1 30.315-3.374L407 263a73.107 73.107 0 0 1 55.254 29.1l4.925 6.55a90.454 90.454 0 0 1 17.14 67.895l-1.898 12.542a120.679 120.679 0 0 1-18.237 47.865L463.5 428 453 442l-11.5 13-10.535 10.114a200.049 200.049 0 0 1-31.398 24.624L396 492l-6.825 3.25c-1.758.837-3.225-1.572-1.675-2.75l9.5-9 1.953-2.051a45.489 45.489 0 0 0 11.033-19.728l.903-3.412c.406-1.533.611-3.135.611-4.721 0-8.679-6.146-16.29-14.664-17.957a18.149 18.149 0 0 0-14.929 3.725L372.5 447l-16.606 13.587a200.05 200.05 0 0 1-35.234 23.095L303.5 492.5l-29 11-6.088 1.66c-10.59 2.889-21.4 4.9-32.32 6.014L228 512h-26l-34.5-3.75-18.668-4.04a116.67 116.67 0 0 1-48.901-23.485L85.5 469a77.203 77.203 0 0 1-30.125-55.502L54.5 402l1.03-16.178a117.961 117.961 0 0 1 50.076-89.147l3.071-2.149a132.449 132.449 0 0 1 42.128-19.55l10.142-2.679a87.956 87.956 0 0 1 40.36-1.077l10.58 2.198c2.655.552 3.216 4.095.862 5.44Z" fill="#5E5E5E"/></svg>