<svg class="h-9 mobile:h-6" xmlns="http://www.w3.org/2000/svg" viewBox="0 0 527.7 102.2" fill="currentColor" aria-labelledby="title"><path d="M490.2 35.7c-10.4-.1-16.8 6.3-15.2 22.1 9.1-3.6 18.4-7.9 27.7-13.1-2.7-8.1-9.7-9-12.5-9zm4 66.5c-26.3-.2-42.6-17-42.6-44 0-26.7 15.2-43.3 39.7-43.3 20.6 0 33.5 12.9 37.4 37.3-14.2 9.4-30 17.7-46.6 24.1 0 0 4.3 3.1 13.2 3h32.4v22.9h-33.5zm-251.8 0V52.8c0-11.1-3-14.3-13.3-14.3h-11v63.7H195V15.9h36.7c22.7 0 33.7 10.4 33.7 31.9v54.4h-23zm70.3 0c-26.4 0-42.8-16.3-42.8-42.9 0-26.8 16.3-43.3 42.6-43.3h10v23.6h-8.4c-13 .2-20.4 7.4-20.4 19.8 0 12 7.4 19 20.4 19.1h8.8v23.7h-10.2zm94.1 0V47.8c0-21.5 11-31.9 33.7-31.9h10.7v22.6h-8c-10.3 0-13.3 3.2-13.3 14.3v49.4h-23.1zM152.4 35.7c-10.4-.1-16.8 6.3-15.2 22.1 9.1-3.6 18.4-7.9 27.7-13.1-2.7-8.1-9.7-9-12.5-9zm4 66.5c-26.3-.2-42.6-17-42.6-44 0-26.7 15.2-43.3 39.7-43.3 20.6 0 33.5 12.9 37.4 37.3-14.2 9.4-30 17.7-46.6 24.1 0 0 4.3 3.1 13.2 3h32.4v22.9h-33.5zm-65.5-23v23H0V32.8c14.4-3.1 28.7-7.1 42.6-12C59.2 15 75.3 8.1 90.9 0v25.6C77.7 32 64 37.6 50.1 42.5 34.4 48 18.3 52.4 2 55.8v.2c30.1-2.8 59.7-7.7 88.9-14.5V65C61.7 71.6 32 76.3 2 79v.2h88.9zM324.7 59c0 27.7 14.6 44.9 38.8 44.9s38.8-17.2 38.8-44.9c.1-14.7-3.8-26.1-11.5-33.8-6.7-6.8-16.4-10.5-27.3-10.5s-20.6 3.7-27.3 10.5c-7.7 7.8-11.6 19.2-11.5 33.8zm22.2.4c0-13.1 6.7-22 16.6-22s16.6 8.8 16.6 22c0 13.1-6.6 21.6-16.6 21.6-10 0-16.6-8.5-16.6-21.6z"/></svg>