<svg xmlns="http://www.w3.org/2000/svg" width="243" height="213"><g style="fill:#a90533"><path d="M38.003 153.656C19.2 133.731 8.198 106.205 8.226 73.362c-.026-29.045 9.1-54.01 24.79-73.008l-.026.01H.014v153.295H37.98l.023-.003zM211.673 153.669c8.1-8.676 15.358-18.893 21.935-30.578l-36.5-18.25c-12.818 20.84-31.563 40.022-57.485 40.15-37.727-.128-52.55-32.388-52.468-73.91h140.978c.188-4.689.188-6.868 0-9.125.92-24.703-5.627-45.468-17.537-61.638l-.061.046h31.741V153.66h-30.672l.069.009z"/><path d="M89.437 35.494c1.56-18.8 16.383-31.443 33.762-31.48 17.497.037 30.14 12.68 30.568 31.48h-64.33z"/></g><path d="M20.089 179.608v-6.386H.471v37.867h19.618v-6.388H7.771v-10.036h11.861v-6.387H7.771v-8.67h12.318zM53.394 195.12c4.891-.726 7.576-5.572 7.756-10.493-.18-8.05-5.398-11.382-12.774-11.406H38.339v37.868h7.3v-15.056l9.124 15.056h9.125L53.394 195.12zm-7.756-15.967h.912c3.983.15 6.972 1.058 6.844 5.93.128 4.466-2.76 5.677-6.844 5.476h-.912v-11.406zM86.7 173.222h-7.3v37.867h17.793v-6.388H86.699v-31.48zM134.604 203.333l3.194 7.756h7.756l-14.144-38.78h-5.93l-15.057 38.78h7.756l3.194-7.756h13.231zm-1.825-5.93h-9.125l4.106-14.144 5.02 14.143zM159.242 211.09h7.755v-25.55l20.075 26.461h5.474v-38.78h-7.755v25.55l-20.075-26.462h-5.475v38.78zM224.483 191.014v5.931h8.213c-.171 4.767-4.072 8.805-8.669 8.669-7.259.136-10.856-6.88-10.95-13.23.094-6.268 3.64-13.587 10.95-13.688 3.836.1 7.08 2.725 8.669 5.931l6.387-3.194c-2.809-5.917-8.483-9.198-15.056-9.124-11.313-.073-18.557 9.264-18.706 20.074.149 10.54 7.191 19.929 18.25 20.075 11.943-.146 17.466-9.686 17.337-20.531v-.913h-16.425z"/></svg>