<svg xmlns="http://www.w3.org/2000/svg" viewBox="0 0 433.05 102.55"><g fill="#e6e7e8"><path d="M131.23 30.13H160v7.17h-20.84V49h19.64v7.18h-19.64v18.5h-7.93zM190.21 74.69H183v-4.85h-.13a10.5 10.5 0 0 1-3.27 3.94 9.7 9.7 0 0 1-6 1.67 12.1 12.1 0 0 1-5.13-1 9.2 9.2 0 0 1-3.43-2.64 10.3 10.3 0 0 1-1.83-3.81 17.3 17.3 0 0 1-.57-4.47V44.48h7.56v15.29c0 .84 0 1.78.12 2.8a10.5 10.5 0 0 0 .66 2.9 5.56 5.56 0 0 0 1.64 2.27 4.78 4.78 0 0 0 3.11.91 7.2 7.2 0 0 0 3.18-.63 6.1 6.1 0 0 0 2.14-1.7 6.6 6.6 0 0 0 1.23-2.46 11 11 0 0 0 .38-2.89V44.48h7.55zM213.56 52.85a6.91 6.91 0 0 0-5.91-3.09 6.36 6.36 0 0 0-3 .76 2.56 2.56 0 0 0-1.41 2.48 2.11 2.11 0 0 0 1.2 2 12.8 12.8 0 0 0 3 1.07c1.22.29 2.53.6 3.93.91a15.7 15.7 0 0 1 3.94 1.45 8.6 8.6 0 0 1 3 2.68 8 8 0 0 1 1.19 4.65 8.4 8.4 0 0 1-1.16 4.57 9.3 9.3 0 0 1-3 3 13.5 13.5 0 0 1-4.19 1.63 21.7 21.7 0 0 1-4.66.51 20 20 0 0 1-6.48-1 12.4 12.4 0 0 1-5.29-3.65l5-4.72a13.9 13.9 0 0 0 3.12 2.67 7.45 7.45 0 0 0 4.06 1 7.8 7.8 0 0 0 1.69-.19 5.2 5.2 0 0 0 1.64-.63 4 4 0 0 0 1.23-1.1 2.6 2.6 0 0 0 .47-1.54 2.56 2.56 0 0 0-1.2-2.33 10.8 10.8 0 0 0-3-1.23 76 76 0 0 0-3.93-.88 15 15 0 0 1-3.93-1.32 8.3 8.3 0 0 1-3-2.55 7.6 7.6 0 0 1-1.19-4.53 8.76 8.76 0 0 1 1-4.38 9.2 9.2 0 0 1 2.73-3.05 11.9 11.9 0 0 1 3.91-1.76 17.8 17.8 0 0 1 4.47-.57 18 18 0 0 1 6 1 9.77 9.77 0 0 1 4.78 3.56zM222.82 34.22a4.35 4.35 0 0 1 1.35-3.22 4.66 4.66 0 0 1 3.43-1.35 5 5 0 0 1 3.49 1.35 4.41 4.41 0 0 1 0 6.48 5 5 0 0 1-3.49 1.29 4.66 4.66 0 0 1-3.43-1.35 4.37 4.37 0 0 1-1.35-3.2m1.07 10.26h7.55v30.21h-7.55zM235.66 59.58a16 16 0 0 1 1.34-6.51 15 15 0 0 1 8.71-8.21 18.68 18.68 0 0 1 12.85 0 15 15 0 0 1 8.71 8.21 17.1 17.1 0 0 1 0 13 15 15 0 0 1-8.71 8.21 18.68 18.68 0 0 1-12.85 0A15 15 0 0 1 237 66.1a16 16 0 0 1-1.34-6.52m7.55 0a9.8 9.8 0 0 0 .6 3.4 8.4 8.4 0 0 0 1.76 2.9 8.94 8.94 0 0 0 13 0 8.4 8.4 0 0 0 1.76-2.9 9.9 9.9 0 0 0 0-6.79 8.4 8.4 0 0 0-1.76-2.9 8.94 8.94 0 0 0-13 0 8.4 8.4 0 0 0-1.76 2.9 9.8 9.8 0 0 0-.6 3.39M272.54 44.48h7.18v4.84h.12a10.65 10.65 0 0 1 3.28-3.93 9.67 9.67 0 0 1 6-1.67 11.9 11.9 0 0 1 5.13 1 9.7 9.7 0 0 1 3.43 2.64 9.9 9.9 0 0 1 1.88 3.78 17.3 17.3 0 0 1 .57 4.47v19.08h-7.55V59.4c0-.84 0-1.78-.13-2.81a9.8 9.8 0 0 0-.66-2.89 5.45 5.45 0 0 0-1.67-2.27 4.8 4.8 0 0 0-3.08-.91 7.2 7.2 0 0 0-3.18.63 6.2 6.2 0 0 0-2.14 1.7 6.7 6.7 0 0 0-1.23 2.45 11 11 0 0 0-.38 2.9v16.49h-7.55z"/></g><path fill="#f58320" d="M322.46 30.13h6.86l19.2 44.56h-9.07l-4.15-10.2H316l-4 10.2h-8.87zm10.07 27.57-6.86-18.13-7 18.13zM377.28 74.69h-7.18v-4.85h-.1a10.66 10.66 0 0 1-3.27 3.94 9.7 9.7 0 0 1-6 1.67 12.1 12.1 0 0 1-5.13-1 9.2 9.2 0 0 1-3.43-2.64 10 10 0 0 1-1.89-3.81 17.3 17.3 0 0 1-.57-4.47V44.48h7.55v15.29c0 .84 0 1.78.13 2.8a9.8 9.8 0 0 0 .66 2.9 5.56 5.56 0 0 0 1.64 2.27 4.78 4.78 0 0 0 3.11.91A7.2 7.2 0 0 0 366 68a6.1 6.1 0 0 0 2.14-1.7 6.6 6.6 0 0 0 1.23-2.46 11 11 0 0 0 .38-2.89V44.48h7.55zM379.86 50.9v-6.42h6.23v-8.75h7.56v8.75H402v6.42h-8.3v13.22a6.6 6.6 0 0 0 .84 3.58c.57.89 1.69 1.33 3.37 1.33a13 13 0 0 0 2.21-.22 4.6 4.6 0 0 0 1.88-.73v6.36a9.7 9.7 0 0 1-2.92.79 26 26 0 0 1-3.06.22 15.5 15.5 0 0 1-4.94-.66 6.64 6.64 0 0 1-3-2 7.6 7.6 0 0 1-1.51-3.37 23.7 23.7 0 0 1-.41-4.65V50.9zM413 48.69h.13a8.8 8.8 0 0 1 3.11-3.43 10 10 0 0 1 5.76-1.54 11.8 11.8 0 0 1 5.13 1 9.6 9.6 0 0 1 3.43 2.64 10 10 0 0 1 1.89 3.78 17.3 17.3 0 0 1 .57 4.47v19.08h-7.56V59.4c0-.84 0-1.78-.12-2.81a10.5 10.5 0 0 0-.66-2.89 5.54 5.54 0 0 0-1.68-2.27 4.83 4.83 0 0 0-3.08-.91 7.2 7.2 0 0 0-3.18.63 6.1 6.1 0 0 0-2.14 1.7 6.7 6.7 0 0 0-1.23 2.45 11 11 0 0 0-.38 2.9v16.49h-7.55V27.1H413z"/><path fill="#e6e7e8" d="M27.75 90.64A43.5 43.5 0 0 1 18 83a10.9 10.9 0 0 1-3 2.6 11 11 0 0 1-2 .88 49.45 49.45 0 0 0 60.7 9.71 3.05 3.05 0 0 0 0-5.29 3 3 0 0 0-3-.05 43.3 43.3 0 0 1-42.95-.21M27.74 15.68a43.2 43.2 0 0 1 11.52-4.59 10.9 10.9 0 0 1-.76-4 11.4 11.4 0 0 1 .22-2.2A49.44 49.44 0 0 0 0 52.62a3.06 3.06 0 0 0 4.59 2.64 3 3 0 0 0 1.53-2.56 43.3 43.3 0 0 1 21.62-37.02M92.65 53.16a43.3 43.3 0 0 1-1.78 12.27 10.9 10.9 0 0 1 3.82 1.32A12 12 0 0 1 96.48 68a49.45 49.45 0 0 0-22-57.38 3.06 3.06 0 0 0-4.48 2.7 3 3 0 0 0 1.45 2.6 43.29 43.29 0 0 1 21.2 37.24M49.39 32.58a20.58 20.58 0 1 1-20.57 20.58 20.6 20.6 0 0 1 20.57-20.58m0-6.11a26.69 26.69 0 1 0 26.69 26.69 26.68 26.68 0 0 0-26.69-26.69"/><circle cx="49.38" cy="7.12" r="7.12" fill="#f58320"/><circle cx="9.51" cy="76.17" r="7.12" fill="#f58320"/><circle cx="89.25" cy="76.17" r="7.12" fill="#f58320"/><path fill="#f58320" d="M55.29 48.29a5.9 5.9 0 1 0-8.8 5.13l-1.86 9.43a1 1 0 0 0 1 1.2h7.57a1 1 0 0 0 1-1.2l-1.87-9.43a5.89 5.89 0 0 0 2.96-5.13"/></svg>