<svg xmlns="http://www.w3.org/2000/svg" xml:space="preserve" viewBox="0 0 205.4 76.7"><path d="M15.5 23.2q-.6 0-.3-.5l2.1-2.7q.4-.5 1.1-.5h35.7q.6 0 .3.6l-1.7 2.6q-.4.5-1 .6zM.4 32.4q-.6 0-.3-.5l2.1-2.7q.4-.5 1.1-.5h45.6q.6 0 .5.6l-.8 2.4q-.2.6-.9.6zm24.2 9.2q-.6 0-.3-.6l1.4-2.5q.3-.5 1-.6h20q.6 0 .6.7l-.2 2.4q-.1.6-.7.7zm103.8-20.2-16.8 4.4c-1.5.4-1.6.5-2.9-1A13 13 0 0 0 104 21a17 17 0 0 0-18.1 1.5 21 21 0 0 0-10.2 19c.1 8 5.6 14.6 13.5 15.7q10.2 1.2 17-6.6l2.7-3.7H89.6c-2.1 0-2.6-1.3-1.9-3 1.3-3.1 3.7-8.3 5.1-10.9.3-.6 1-1.6 2.5-1.6h36.4q-.1 4-.6 8.1a43 43 0 0 1-8.2 19.6 42 42 0 0 1-28.5 17 35 35 0 0 1-26.9-6.6 31 31 0 0 1-12.7-22.2A39 39 0 0 1 63.3 18 44 44 0 0 1 91.3.7c9.4-1.7 18.4-.6 26.5 4.9q7.9 5.3 11.6 14.1.8 1.3-1 1.7" class="prefix__st0"/><path d="M161.5 76.7a38 38 0 0 1-24.4-8.8 31 31 0 0 1-10.8-19.3 38 38 0 0 1 8.1-30.2 42 42 0 0 1 28-16.7 37 37 0 0 1 28.5 5.1A31 31 0 0 1 205 29.1 39 39 0 0 1 193.5 63a46 46 0 0 1-24 12.8q-4 .6-8 .9m23.8-40.4q0-1.9-.3-3.3a16.5 16.5 0 0 0-20.4-13.3q-14 3.2-17.5 17.4c-1.8 7.8 2 15.7 9.2 18.9q8.3 3.5 16.3-.6a22 22 0 0 0 12.7-19.1" class="prefix__st0"/></svg>