<svg xmlns="http://www.w3.org/2000/svg" viewBox="0 0 1000 700"><path fill="#9b99a6" d="M151.5 43.4c4.9-3.9 11.2-7 17.6-5.9 6.3 1.6 13 4 16.8 9.6a27 27 0 0 1-1.3 31.6l-.6-.5c-1.5-1.5-3-3.2-4.9-4.3-2-1.4-5.3-.2-5.8 2.2-.8 3.6 1 7 2.7 10-6 1.3-12.7 2.1-18.5-.4A27 27 0 0 1 141.2 64a33 33 0 0 1 10.3-20.6m91.7 107.1c5-.9 9.7-3.2 14.8-3.4 11.3-.3 22.9.3 33.7 4.1a17 17 0 0 1 8.1 5.8c-4.7.8-9 2.8-13.4 4.4a448 448 0 0 0-50.7 23.3c-7.2 4-14.4 8-20.6 13.5-4.5 3.9-9.7 7-13.5 11.7a50 50 0 0 1 8.5-34.9c3.3-5.2 8.5-8.6 12.7-13a57 57 0 0 1 20.4-11.5M564 220a21 21 0 0 1 17-5.2 23 23 0 0 1 16.8 13.3 23 23 0 0 1-6.7 27 20.6 20.6 0 0 1-25.6-.7c3.5-3.3 7.5-7.9 6.3-13-3.5-4.6-10.5-4-15-1.3a22 22 0 0 1 7.2-20m-69.7 17.2c13.9-1.3 26 7.4 36.2 15.6a36 36 0 0 1 10 18.8q2.9 15-2.2 29.5c-2.9 9.4-7.6 19.6-17 23.9 0-5.5-1.3-10.8-2.2-16-4-21-10-41.7-19-61.2a54 54 0 0 0-5.9-10.6M143.1 398.2c7.4-2.8 15.5-.2 21.8 3.9a123 123 0 0 1 54 59 59 59 0 0 1 6 23c.3 7.7-4.5 14.4-9.9 19.5-6.2 5-12.2 10.3-19.2 14.2-9 4.7-19.7 7-29.9 5.2-12.4-2.1-24-8-33.5-16.4 3.4-2.2 7.2-5.2 7.2-9.6.7-8.3-7.4-15.5-15.5-14.9-3 1.4-5 4.4-7.2 6.8-5-8-9-17.3-8-26.9 2.5-17 8-33.8 18.2-47.9 1.1-1.2 1.2-3 1.4-4.5 5.1-3.5 8.6-9.3 14.6-11.4M45.5 523.4A31 31 0 0 1 73 505.7c7.5.7 14.7 3.6 21.4 6.9a20 20 0 0 1 9.4 12 35 35 0 0 1-5.4 32.9 33 33 0 0 1-17 12.2c-10.6 3-22.1-.7-29.7-8.3a35 35 0 0 1-6.2-38"/><path fill="#f79727" d="M173.3 76.1c.5-2.4 3.8-3.6 5.8-2.2q2.7 1.8 5 4.3c2.7 3.5 6 6.5 9 9.7 12.3 13.5 23.4 28 35 42l15.9 19.8-.8.8a57 57 0 0 0-20.4 11.5c-2.5-2.5-4.2-5.7-6.1-8.7a979 979 0 0 1-29.7-50.2c-3.3-6-7.7-11.1-11-17-1.7-3-3.5-6.4-2.7-10M556.7 240c4.6-2.6 11.6-3.2 15.1 1.3 1.2 5.2-2.8 9.8-6.3 13a142 142 0 0 1-25 17.4c-1.3-7-4.9-13.7-10-18.7 8.2-5.4 17.8-8 26.2-13M117 488.9c2.1-2.4 4-5.4 7.1-6.7 8-.7 16.2 6.5 15.5 14.8 0 4.4-3.8 7.4-7.2 9.6-4.7 3-9.6 5.5-14.2 8.6-4.8 3-9.2 6.8-14.4 9.3a20 20 0 0 0-9.4-12c5.8-9.3 15.4-15.4 22.5-23.6"/><path fill="#787880" d="M323 152.7c12.5-2 25.1-1.5 37.7-1.3A159 159 0 0 1 461 194c3.7 2.5 6 6.6 9.3 9.6 9.4 10.1 16.6 22 24 33.6q3.4 5 5.8 10.6c9 19.5 15 40.1 19 61.1.9 5.3 2.1 10.6 2.2 16-.4 9.4 1.7 18.8.4 28.1-.7 5.1 0 10.2-1 15.3a93 93 0 0 1-9.8 26.6c-2 4.2-6.4 6.3-10 8.8-3.8 2.4-8.8 4.6-13.1 2.4-7-4-10.2-11.7-11.8-19.2-1.7-6.9-1.1-14-1.2-21-1.1-19.6-2.2-39.3-6.6-58.5a65 65 0 0 0-17.6-34.1 69 69 0 0 0-20.7-12.2 115 115 0 0 0-35-5c-14.2-.4-28.3 2.6-42 6.2-13.9 3.6-27 9.6-40 15.6-10.2 4.4-20 9.9-29.9 15q-8.4 4.4-16 10c-9 7-18.7 13.2-26.1 22a68 68 0 0 0-16.3 30 97 97 0 0 0 6.4 50c6.8 17.4 17 33.5 29.8 47.3 8.7 11 20.4 19 31.7 27.1a23 23 0 0 1 10.3 18.7c-.6 6.2-5.3 11-10.2 14.4a32 32 0 0 1-17.7 5.2c-14.5-.1-29.2-1.9-43.1-6.6-5.8-2-11.2-5-16.8-7.5 5.4-5 10.2-11.8 10-19.5a59 59 0 0 0-6-23 123 123 0 0 0-54-59c-6.4-4-14.5-6.7-21.9-4-6 2.2-9.5 8-14.6 11.5-1.5-4.4-.8-9.1-1.5-13.7-.7-5.3-.3-10.6-.8-16-.8-7.2-.4-14.6-.5-22a248 248 0 0 1 2.2-43 125 125 0 0 1 13.7-37.3 166 166 0 0 1 24.8-34.2q7.8-9.1 17-16.8c5.7-6.1 13-10.4 18.2-16.7 3.8-4.7 9-7.8 13.5-11.7 6.2-5.5 13.4-9.5 20.6-13.5a448 448 0 0 1 50.7-23.3c4.4-1.7 8.7-3.6 13.4-4.4 8-.6 15.4-3.7 23.3-4.3"/><path fill="#464646" d="M352.8 380.7c5.6-11 21.8-12.7 31-5.4 6 4.9 7.7 13.2 7.8 20.6v63c7.2-8 15.3-15.6 25.4-19.8a71 71 0 0 1 40.1-3.8 49 49 0 0 1 33.8 23.8c6.9 11 7.7 24.3 8 36.9v80c0 6.5-.4 13.3-3.8 19-6.8 11.4-25.9 12.4-33.6 1.6a33 33 0 0 1-4.4-18.5V508c0-11-1-22.7-6.7-32.4-5.1-8-15.6-10-24.5-9.5a36 36 0 0 0-32.3 29 138 138 0 0 0-2 23v61c0 7-1.5 14.6-6.8 19.7-5 5-12.9 6-19.6 4.8-4.4-.8-8.5-3.2-11-6.9a31 31 0 0 1-4.5-17.6V403c0-7.5-.4-15.4 3.1-22.3m581.6-7.1c6.3-1.5 13.2-.3 18.4 3.5 8.7 6 9.7 19 4.8 27.5-6.9 11.3-24.4 12.5-33.6 3.3-5-4.8-6.2-12.3-5-19 1.5-7.5 8-13.5 15.4-15.3M573.1 439c18.5-6.7 38.6-6.8 58-5.1 14.6 1.5 30.4 5 40.6 16.4 10 11 12.2 26.7 13 41 .3 18.6-.2 37.1-.2 55.7 0 10 2.6 19.6 5.5 29 1.4 5.5 3.7 11.5.9 16.9a21 21 0 0 1-20 11c-4-.4-7.6-2.7-10.5-5.4-5.7-5.3-9.9-12-14-18.5a103 103 0 0 1-46.3 22.9 68 68 0 0 1-45.5-6.5 45.6 45.6 0 0 1-17.1-62c5-8.3 12.6-14.7 21.4-18.6 9.1-4.2 19.3-5.4 29-7.6 18.7-3.8 37.3-7.9 55.6-13.2a45 45 0 0 0-7-25.6c-5.3-6-14-7-21.5-7.3-10.5-.2-22 .4-30.5 7.3-7.9 5.8-11.7 15.1-17.6 22.7-2.6 3.1-7.1 3.2-10.8 3.2-7.7.1-15.5-5.4-16.8-13.1-1-7 1-14.2 4.6-20.3A54 54 0 0 1 573 439m19.9 93.3a30 30 0 0 0-16.8 11 21 21 0 0 0 4.5 25.9c6.7 6.3 16.6 7.4 25.4 6.3 12.9-1.7 26.1-8.2 32.5-20 5.3-11 4.9-23.6 5-35.6-16.5 5.6-33.8 8.2-50.6 12.4m135.3-94.1c8.3-7.3 23-5.8 29 3.6 4.2 5.9 4.2 13.4 4.1 20.3a74 74 0 0 1 33.7-25.2 67 67 0 0 1 79.5 33.5 103 103 0 0 1 10.8 51.6 98 98 0 0 1-16.7 54.5 66 66 0 0 1-46.5 27.1c-14 1.4-29.1-.6-41-8.8-7.6-4.9-13.7-11.7-19.7-18.3l-.1 62.5c-.2 7.6-1 16-6.5 21.8-4.2 4.6-11 5.7-16.9 5-4.7-.3-9.8-2.2-12.2-6.5a42 42 0 0 1-4-19.3V457c0-6.7 1.3-14.1 6.5-18.8m68.3 27.6a40 40 0 0 0-26.4 20.3 76 76 0 0 0-6.6 40 52 52 0 0 0 16 36.5c9.2 8.5 23 11.5 35 7.8 8.6-2.7 15.8-9 20.3-16.7 8-13.4 9.3-29.6 8-44.8a52 52 0 0 0-16.7-36 35 35 0 0 0-29.6-7.1m137-31.1c7-1.8 14.9-.4 20.1 4.7 5.2 4.7 7 11.9 6.9 18.6v121c0 6.8-1.5 14.1-6.5 19a21 21 0 0 1-22 4.8c-5.7-2-10-7.1-11.8-12.9-2.2-6.4-1.5-13.2-1.6-19.9l.1-114c0-9.2 5.3-19 14.8-21.3"/></svg>