<svg xmlns="http://www.w3.org/2000/svg" xml:space="preserve" width="512" height="512" style="enable-background:new 0 0 512 512"><path d="M256.514 149.935c1.54-18.071 5.031-54.112 51.134-54.112h101.241c21.254 0 32.96-8.009 32.96-22.179V61.015c0-12.526 9.548-22.692 22.076-22.692 12.526 0 22.074 10.166 22.074 22.692v37.478c0 44.049-22.074 63.66-68.587 63.66H314.219c-30.906 0-33.884 15.095-33.884 27.827 0 1.334-.104 2.566-.205 3.798-.719 12.63-11.193 22.795-24.027 22.795s-23.309-10.063-24.026-22.795c-.104-1.231-.205-2.464-.205-3.798 0-12.631-3.081-27.827-33.884-27.827H94.589c-46.513 0-68.588-19.611-68.588-63.66V61.015c0-12.526 9.651-22.692 22.178-22.692s22.076 10.166 22.076 22.692v12.629c0 14.17 11.704 22.179 32.961 22.179h101.239c46 0 49.594 36.041 51.134 54.112h.925zm-.513 323.743c11.807 0 21.973-7.187 26.388-16.734 1.129-1.849 99.699-174.144 100.83-175.993 12.219-20.123-3.286-45.484-27.928-45.484-14.274 0-23.924 6.57-30.599 20.843l-68.691 120.854-68.692-120.854c-6.571-14.272-16.326-20.843-30.599-20.843-24.644 0-40.147 25.259-27.929 45.484 1.13 1.952 99.701 174.145 100.83 175.993 4.416 9.547 14.58 16.734 26.39 16.734z" style="fill:#00b4f0"/></svg>