<svg xmlns="http://www.w3.org/2000/svg" viewBox="0 0 460 460" xml:space="preserve"><path fill="#D4D4D4" d="M459.971 137.825c.169.047.337.094.767.158.262 19.038.262 38.059-.065 57.644-1.14 1.11-2.151 1.497-2.734 2.226-10.68 13.351-21.31 26.744-32.283 40.125-.778-.007-1.223-.01-1.925-.246-1.224-.866-2.118-1.677-3.168-2.107-10.388-4.264-20.807-8.452-31.207-12.687-8.103-3.299-16.19-6.634-24.525-10.197a441.14 441.14 0 0 1-6.971-12.055c-5.695-10.11-11.276-19.902-16.615-29.922 3.8-3.687 7.513-7.001 10.886-10.632 6.72-7.236 13.252-14.646 20.327-22.049 29.481-.129 58.497-.194 87.513-.258z"/><path fill="#C5C7C7" d="M423.989 237.963c.444.004.889.008 2.055-.066 2.012-.358 3.29-.731 4.594-.905 10.118-1.353 20.24-2.666 30.362-3.992v90.531c-.175.482-.35.495-1.244.514-17.33-.006-33.941-.005-50.553-.033-29.067-.05-58.134-.12-87.045-.494 7.666-13.444 15.177-26.575 22.954-39.569 1.198-.053 2.265-.014 3.042-.469 19.9-11.644 39.8-23.288 59.625-35.06 5.525-3.28 10.813-6.96 16.21-10.457z"/><path fill="#CECECE" d="M461 232.531c-10.121 1.795-20.244 3.108-30.362 4.46-1.304.175-2.582.548-4.26.91 10.251-13.304 20.88-26.697 31.56-40.048.584-.73 1.595-1.115 2.735-1.757.327 11.925.327 23.946.327 36.435z"/><path fill="#4D4D4D" d="M459.597 137.66c-28.642.23-57.658.294-87.603.36-17.371.063-33.813.124-50.506-.04-4.453-7.339-9.749-14.045-12.58-21.667-3.654-9.836-10.304-10.974-19.052-10.187-7.224.65-14.51.601-22.124.9-6.298 10.353-12.241 20.67-18.625 30.98-12.343.003-24.246.014-36.286-.296-5.722-10.112-11.308-19.903-17.018-29.978-1.197-.694-2.267-1.449-3.344-1.458-10.054-.081-20.116-.224-30.157.144-1.863.069-4.271 1.95-5.35 3.67-3.778 6.022-7.013 12.38-10.597 18.527-1.908 3.273-4.112 6.373-6.658 9.49-23.89-.098-47.302-.135-70.715-.173 5.024-8.795 10.074-17.576 15.066-26.39 9.327-16.466 18.576-32.977 27.955-49.414a255.446 255.446 0 0 1 9.702-15.69c.788-1.177 2.637-1.893 4.136-2.273 1.572-.398 3.311-.162 4.977-.162 67.159-.004 134.318.045 201.476-.1 5.04-.01 7.939 1.226 10.531 5.988 9.21 16.92 19.061 33.493 28.736 50.159 6.248 10.763 12.79 21.36 18.826 32.24 2.132 3.844 4.851 4.81 8.894 4.778 17.83-.142 35.662-.077 53.493-.039 2.15.005 4.299.304 6.823.632zM322.002 323.832c29.067.06 58.134.13 87.201.18 16.612.028 33.223.027 50.298.102-1.662.334-3.787.833-5.913.842-16.488.065-33.028.816-49.446-.262-9.552-.627-13.578 4.035-17.515 11.06-7.783 13.888-16.023 27.518-23.932 41.336-4.363 7.624-8.375 15.448-12.663 23.116-2.997 5.36-6.027 10.718-9.427 15.82-.791 1.187-3.118 1.757-4.789 1.87-3.98.27-7.989.103-11.986.103-64.455.001-128.911-.054-193.366.1-5.468.014-8.634-1.552-11.422-6.555-10.263-18.416-21.19-36.46-31.751-54.711-6.152-10.632-12.082-21.392-17.74-32.466 23.776-.422 47.18-.472 70.876-.346 5.38 9.079 10.558 17.93 15.51 26.907 1.947 3.53 4.263 5.355 8.608 5.175 8.465-.35 16.957-.037 25.435-.158 1.708-.025 3.406-.757 5.4-1.3 4.014-6.277 7.875-12.34 11.411-18.587 2.172-3.836 3.85-7.953 6.182-11.984 12.45-.003 24.468.032 36.62.413 1.823 3.73 3.29 7.25 5.248 10.474 4.14 6.815 8.535 13.475 13.185 20.45 9.996.364 19.643.24 29.263.69 4.767.223 7.083-1.79 9.233-5.763 4.867-8.994 10.285-17.69 15.48-26.506z"/><path fill="#D7D8D8" d="M140.134 323.844c-23.403.05-46.807.101-70.68.192-4.547-7.004-8.572-14.08-12.715-21.085-8.303-14.045-16.755-28.003-24.972-42.097-3.448-5.914-6.457-12.085-9.353-18.581 2.037-1.047 3.765-1.642 5.485-2.256 13.444-4.797 26.853-9.694 40.342-14.36 7.715-2.67 15.07-5.563 17.79-14.352.105-.34.708-.527 1.409-1.014 1.525 3.597-1.543 9.85 5.606 10.123-5.626 7.095-6.43 13.835-.061 20.622.31.33.284.955.53 1.376 3.777 6.468 7.573 12.926 11.512 19.72 3.095 5.668 5.975 11.04 9.002 16.327 8.67 15.147 17.399 30.26 26.105 45.385z"/><path fill="#E0E1E1" d="M93.04 220.054c-7.143.087-4.075-6.166-5.6-9.763-.7.487-1.304.673-1.41 1.014-2.718 8.789-10.074 11.683-17.789 14.352-13.489 4.666-26.898 9.563-40.342 14.36-1.72.614-3.448 1.21-5.532 1.896-.493-.017-.644-.1-.756-.22-6.333-6.725-6.88-12.782-.754-20.822 7.096-9.314 12.228-20.14 18.07-30.393 7.616-13.368 15.08-26.824 22.636-40.228a369.543 369.543 0 0 1 7.146-12.1c23.686-.18 47.099-.143 70.866.293-4.776 9.419-9.92 18.433-15.032 27.465-4.475 7.909-8.785 15.914-13.4 23.739-5.615 9.52-11.474 18.896-17.395 28.56-.344.754-.52 1.281-.704 1.815-.01.006-.005.032-.005.032m-1.37-15.086 2.696-1.282-1.048-1.356a213.24 213.24 0 0 1-2.382 2.705s.068-.03.735-.067m-2.194 2.537s.039-.013 0 0z"/><path fill="#00B8E3" d="M322.158 323.518c-5.35 9.13-10.77 17.826-15.636 26.82-2.15 3.974-4.466 5.986-9.233 5.763-9.62-.45-19.267-.326-29.088-1.014 6.36-11.925 12.966-23.24 19.434-34.632 7.112-12.526 13.995-25.183 21.161-37.678 9.889-17.241 19.948-34.384 30.196-51.818 4.135-7.018 7.872-13.868 11.938-20.518 2.039-3.334 4.676-6.303 7.043-9.436 2.206 3.83 4.412 7.66 6.93 12.078 1.754 3.37 2.678 6.635 4.735 8.844 5.966 6.406 4.903 11.94.057 18.644-5.085 7.035-8.842 15.031-13.161 22.618-3.91 6.867-7.793 13.748-11.688 20.623a34736.582 34736.582 0 0 0-22.688 39.706z"/><path fill="#33C6E8" d="M357.86 200.686c-2.254 3.452-4.891 6.42-6.93 9.755-4.066 6.65-7.803 13.5-12.117 20.476-.441.207-.798.113-.871-.237a3162.417 3162.417 0 0 0-18.474-32.73c-11.703-20.45-23.506-40.842-35.141-61.33-5.562-9.792-10.835-19.75-16.24-29.632 7.259-.26 14.545-.213 21.769-.862 8.748-.787 15.398.35 19.052 10.187 2.831 7.622 8.127 14.328 12.758 21.973 6.733 11.257 13.035 21.982 19.337 32.707 5.58 9.791 11.162 19.582 16.857 29.693z"/><path fill="#CED0D0" d="M345.112 283.95c3.629-7.013 7.513-13.894 11.422-20.761 4.319-7.587 8.076-15.583 13.16-22.618 4.847-6.705 5.91-12.238-.056-18.644-2.057-2.209-2.98-5.474-4.495-8.599 8.022 2.976 16.11 6.311 24.213 9.61 10.4 4.235 20.819 8.423 31.207 12.687 1.05.43 1.944 1.241 3.168 2.107-5.139 3.728-10.427 7.408-15.952 10.689-19.825 11.77-39.725 23.415-59.625 35.06-.777.454-1.844.415-3.042.468z"/><path fill="#D9D9DA" d="M341.245 170.764c-6.544-10.496-12.846-21.221-19.327-32.253 16.263-.367 32.705-.428 49.61-.426-6.145 7.4-12.678 14.81-19.397 22.047-3.373 3.63-7.085 6.945-10.886 10.632z"/><path fill="#018BAA" d="M93.916 217.982c5.753-9.439 11.612-18.815 17.227-28.335 4.615-7.825 8.925-15.83 13.4-23.739 5.112-9.032 10.256-18.046 15.508-27.405 2.192-3.515 4.396-6.615 6.304-9.888 3.584-6.147 6.82-12.505 10.596-18.526 1.08-1.72 3.488-3.602 5.35-3.67 10.042-.369 20.104-.226 30.158-.145 1.077.01 2.147.764 3.02 1.559-7.054 11.49-14.155 22.452-20.705 33.733-10.227 17.612-20.03 35.47-30.11 53.169-6.876 12.076-13.915 24.06-21.136 36.31-1.2 1.77-2.154 3.31-3.088 4.864-5.19 8.628-10.374 17.259-15.56 25.889-3.792-6.46-7.588-12.918-11.365-19.386-.246-.42-.22-1.045-.53-1.376-6.369-6.787-5.565-13.527.061-20.622-.007-.36-.011-.386.189-.602.36-.754.52-1.292.68-1.83z"/><path fill="#DDDEDE" d="M212.957 138.03c11.904-.01 23.807-.02 36.305.311 6.457 10.734 12.318 21.125 17.821 31.621-6.167 4.161-11.959 8.245-17.793 12.265-6.49 4.473-13.003 8.911-19.55 13.298-.794.533-1.923.54-2.789.995-1.801.947-3.895 1.695-5.215 3.127-3.02 3.277-5.462 7.108-10.742 6.972-.641-.016-1.324 1.546-1.99 2.379-.004.002-.008.008-.364.05-2.037 1-3.76 1.892-5.388 2.934-1.727 1.106-3.215 2.927-5.074 3.41-3.174.827-4.45 2.48-4.35 5.819-.388.746-.609 1.263-1.164 1.78-.78-.004-1.225-.007-2.094-.01-2.823.335-5.222.671-8.083 1.008-3.601 0-6.772.273-9.87-.084-2.605-.3-5.124-1.336-7.67-2.4 3.763-6.936 7.435-13.565 11.288-20.088 4.705-7.965 9.704-15.76 14.323-23.774 7.574-13.142 14.944-26.402 22.4-39.612z"/><path fill="#01B8E3" d="M267.441 169.857c-5.861-10.391-11.722-20.782-17.738-31.51a735.955 735.955 0 0 1 18.03-31.322c5.759 9.846 11.032 19.803 16.594 29.596 11.635 20.487 23.438 40.88 35.141 61.329 6.167 10.774 12.27 21.585 18.003 32.74-11.95.388-23.504.415-35.179.082-1.72-3.366-3.21-6.436-4.941-9.363-4.317-7.305-8.744-14.545-13.237-22.13-5.632-10.02-11.152-19.721-16.673-29.422zM212.82 137.71c-7.318 13.531-14.688 26.79-22.262 39.933-4.619 8.014-9.618 15.809-14.323 23.774-3.853 6.523-7.525 13.152-11.543 20.327-1.795 3.463-3.324 6.332-5.312 9.215-12.077.043-23.696.073-35.386.043l-.211-.181c6.966-12.026 14.005-24.01 20.882-36.086 10.078-17.7 19.882-35.557 30.11-53.17 6.55-11.28 13.65-22.242 20.828-33.448 5.91 9.69 11.496 19.48 17.218 29.593z"/><path fill="#CFD0D0" d="M190.993 222.981c.446.003.891.006 1.783.334 5.101 3.705 9.667 7.214 14.425 10.44 16.989 11.52 34.03 22.965 51.08 34.394 5.505 3.69 11.103 7.242 16.522 11.169-8.54 15.15-16.942 29.986-25.344 44.824-12.018-.036-24.035-.071-36.653-.408-4.342-6.913-8.07-13.533-11.83-20.134-4.647-8.154-9.382-16.259-13.97-24.446-4.837-8.632-9.546-17.336-14.021-26.222 5.202-9.119 10.114-18.025 15.302-27.082 1.086-1.057 1.896-1.963 2.706-2.869z"/><path fill="#01B8E3" d="M105.027 262.132c5.039-8.964 10.224-17.595 15.413-26.223a102.338 102.338 0 0 1 3.088-4.865c.255-.223.396-.102.484.313 5.92 10.8 11.649 21.245 17.61 31.555 7.215 12.48 14.691 24.808 21.938 37.27 10.564 18.168 21.024 36.397 31.529 54.6-1.703.406-3.401 1.138-5.11 1.163-8.477.12-16.969-.193-25.434.158-4.345.18-6.661-1.645-8.609-5.175-4.951-8.977-10.13-17.828-15.51-26.907-8.998-15.303-17.727-30.415-26.397-45.562-3.027-5.288-5.907-10.659-9.002-16.327z"/><path fill="#018BAB" d="M249.593 324.487c8.268-15.183 16.67-30.02 25.514-45.336a2299.855 2299.855 0 0 0 17.788-30.866c3.224-5.688 6.35-11.433 9.519-17.152 11.553-.028 23.107-.055 35.13-.093.47-.01.828.084 1.007.126-9.807 17.227-19.866 34.37-29.755 51.611-7.166 12.495-14.05 25.152-21.161 37.678-6.468 11.393-13.074 22.707-19.794 34.38-4.465-6.4-8.86-13.06-13-19.874-1.958-3.223-3.425-6.744-5.248-10.474z"/><path fill="#33C6E9" d="M195.38 354.645c-10.796-18.066-21.256-36.295-31.82-54.462-7.247-12.463-14.723-24.791-21.938-37.271-5.961-10.31-11.69-20.754-17.539-31.494 11.6-.386 23.22-.416 35.37-.1 4.77 7.507 9.005 14.667 13.241 21.827 4.766 8.673 9.475 17.377 14.312 26.01 4.588 8.186 9.323 16.291 13.97 24.445 3.76 6.6 7.488 13.221 11.397 20.173-1.732 4.332-3.41 8.449-5.582 12.285-3.536 6.247-7.397 12.31-11.411 18.587z"/><path fill="#D7D8D8" d="m90.996 204.997 2.32-2.667 1.05 1.356c-.9.427-1.798.854-3.031 1.298-.335.016-.34.013-.34.013zM93.748 218.208c.007.312-.153.85-.504 1.598-.016-.318.16-.845.504-1.598zM89.495 207.499c.02-.007-.02.006 0 0zM91.002 205.002c.001.002-.067.033-.037.014.03-.019.035-.016.037-.014z"/><path fill="#D3D4D4" d="M302.292 230.772c-3.048 6.08-6.173 11.825-9.397 17.513-5.75 10.147-11.56 20.26-17.65 30.554-5.86-3.448-11.459-7-16.964-10.69-17.05-11.429-34.091-22.873-51.08-34.394-4.758-3.226-9.324-6.735-14.09-10.439.108-.842.33-1.36 1.023-1.948 1.45-.058 2.472.15 3.397-.06 25.082-5.731 50.172-11.431 75.21-17.348 3.951-.934 7.662-2.883 11.484-4.362 4.382 7.266 8.809 14.506 13.126 21.81 1.73 2.928 3.22 5.998 4.941 9.364z"/><path fill="#D9DADA" d="M284.114 199.279c-3.711 1.798-7.422 3.747-11.373 4.68-25.038 5.918-50.128 11.618-75.21 17.348-.925.212-1.947.003-3.23-.167-.572-3.269.703-4.921 3.877-5.747 1.86-.484 3.347-2.305 5.074-3.41 1.628-1.043 3.35-1.935 5.407-2.906.375-.012.348-.081.348-.081.663-.831 1.346-2.393 1.987-2.377 5.28.136 7.722-3.695 10.742-6.972 1.32-1.432 3.414-2.18 5.215-3.127.866-.456 1.995-.462 2.79-.995 6.546-4.387 13.06-8.825 19.549-13.298 5.834-4.02 11.626-8.104 17.793-12.265 5.879 9.596 11.4 19.297 17.03 29.317z"/><path fill="#D7D8D8" d="M172.985 252.932c-4.527-6.947-8.763-14.107-13.073-21.627 1.456-3.229 2.985-6.098 4.77-9.206 2.811.47 5.33 1.505 7.934 1.806 3.099.357 6.27.084 10.229.104 2.268.678 3.717 1.335 5.166 1.992-4.912 8.906-9.824 17.812-15.026 26.931z"/><path fill="#D3D4D4" d="M188.287 225.85c-1.725-.506-3.174-1.163-4.98-1.841 2.041-.357 4.44-.693 7.263-1.028-.387.906-1.197 1.812-2.283 2.87z"/><path fill="#DDDEDE" d="M209.003 208.998c.004-.002.031.067.012.038-.02-.03-.015-.036-.012-.038z"/></svg>