<svg xmlns="http://www.w3.org/2000/svg" viewBox="0 0 50 52"><path fill="#FF2D20" fill-rule="evenodd" d="m49.63 11.56.02.21v10.98a.8.8 0 0 1-.4.69l-9.2 5.3v10.51a.8.8 0 0 1-.4.7L20.41 51l-.14.06-.05.02a1 1 0 0 1-.41 0q-.04 0-.07-.03l-.13-.05L.4 39.94a.8.8 0 0 1-.4-.69V6.33q0-.1.03-.2 0-.04.03-.07l.05-.13.05-.07.07-.1.08-.05.09-.07L10.01.11a.8.8 0 0 1 .8 0l9.61 5.53.1.07.07.06.07.1.05.06.06.13.02.07.03.2V26.9l8.01-4.6V11.76l.03-.2q0-.04.03-.07l.05-.13.05-.07.07-.1.08-.05.1-.07 9.6-5.53a.8.8 0 0 1 .8 0l9.61 5.53.1.07.07.06.07.1.06.06.05.13zm-1.58 10.72v-9.12l-3.36 1.93-4.65 2.68v9.12zm-9.6 16.5v-9.12l-4.58 2.6-13.05 7.45v9.22zM1.6 7.73V38.8l17.62 10.14v-9.21l-9.2-5.21H10l-.09-.07-.07-.06-.07-.09-.06-.08-.04-.1-.04-.09-.02-.12-.01-.09V12.33L4.97 9.65zm8.81-6-8 4.61 8 4.61 8-4.6zm4.17 28.77 4.64-2.67V7.72l-3.36 1.94-4.65 2.67v20.1zM39.24 7.16l-8 4.61 8 4.61 8-4.6zm-.8 10.6L33.8 15.1l-3.37-1.93v9.12l4.65 2.68 3.36 1.93zM20.02 38.34l11.74-6.7 5.87-3.35-8-4.61-9.2 5.3-8.4 4.84z"/></svg>