<svg xmlns="http://www.w3.org/2000/svg" preserveAspectRatio="xMinYMin meet" viewBox="0 0 256 251"><path fill="#DF4F4F" d="m.4.4 218.9 231.9s7.5 5.2 13.2-1c5.7-6 1.3-12.2 1.3-12.2zm69.3 22L236.4 202s7.5 5.3 13.2-.8c5.7-6.2 1.3-12.3 1.3-12.3zM21.1 69.2 187.7 249s7.5 5.3 13.2-.9c5.7-6 1.3-12.2 1.3-12.2zm107.2-28 116.5 125.5s5.2 3.7 9.2-.6.9-8.6.9-8.6zm-91.2 82.4L153.5 249s5.2 3.7 9.2-.6 1-8.6 1-8.6zm151-55.2 52.8 57s2.6 1.8 4.6-.3c2-2 .4-4 .4-4zm-121.9 113 52.8 57.1s2.6 1.7 4.6-.3.4-4 .4-4z"/></svg>