<svg xmlns="http://www.w3.org/2000/svg" viewBox="0 0 400 400" xml:space="preserve"><path fill="#5528FF" d="M225.207 141.652c23.054 9.913 36.039 27.53 39.478 51.482 2.62 18.242-2.876 35.025-14.714 49.304-10.668 12.87-24.792 20.348-41.15 22.288-18.658 2.212-35.612-3.094-50.036-15.464-12.441-10.67-19.626-24.534-21.507-40.497-2.22-18.843 3.067-36.024 15.879-50.348 14.123-15.79 32.129-22.702 53.093-21.255 6.281.434 12.43 2.789 18.957 4.49zM219.682 76.299c14.029 7.045 27.709 13.951 41.475 20.681 2.689 1.315 4.02 2.787 3.92 5.987-.24 7.64-.078 15.292-.078 23.51-1.711-.616-3.081-.97-4.325-1.58-18.48-9.054-36.987-18.057-55.37-27.304-3.192-1.606-5.59-1.51-8.724.087-17.027 8.679-34.168 17.134-51.298 25.609-2.468 1.22-5.09 2.132-8.25 3.437 0-9.038-.094-17.465.117-25.884.027-1.07 1.441-2.517 2.568-3.088 19.697-9.974 39.428-19.882 59.237-29.629 1.28-.63 3.454-.273 4.877.368 5.254 2.366 10.367 5.044 15.85 7.806zM182.682 297.299c.459.29.609.367.739.47 11.977 9.384 23.234 7.595 35.839-.048 13.737-8.329 28.791-14.487 43.285-21.564.567-.278 1.275-.267 2.442-.491 0 8.471.11 16.727-.118 24.974-.035 1.242-1.383 2.972-2.579 3.58a5774.264 5774.264 0 0 1-59.218 29.667c-1.205.595-3.238.515-4.467-.094A6105 6105 0 0 1 139.85 304.3c-1.222-.621-2.677-2.283-2.711-3.498-.239-8.282-.125-16.574-.125-25.725a20407.753 20407.753 0 0 1 45.667 22.223z"/></svg>