<svg xmlns="http://www.w3.org/2000/svg" viewBox="0 0 100 100" xml:space="preserve"><path fill="#FBC305" d="M13.143 51.011c-.06-10.768-.303-21.54-.126-32.304.162-9.821 9.757-15.236 18.448-10.464 7.108 3.903 14.018 8.168 20.808 12.521-10.267.078-14.513 4.167-14.507 14.06 0 1.811.12 3.624.129 5.879-.14 4.659-.223 8.875-.629 13.207-6.818 3.731-13.267 7.553-21.322 4.63-.4-.636-.674-1.056-1.066-1.823-.657-2.134-1.196-3.92-1.735-5.706z"/><path fill="#3B61AA" d="M56.212 22.93c10.065 5.688 20.41 10.942 30.105 17.202 7.363 4.754 6.522 15.431-1.044 20.034-6.223 3.786-12.653 7.23-19.338 10.435 3.013-11.066-.082-16.573-12.042-21.104-3.78-2.41-7.358-4.554-10.926-7.145.014-2.254-.116-4.075.05-5.868.954-10.307 2.442-14.603 13.195-13.553z"/><path fill="#EF7E03" d="M14.996 57.065c.274.42.548.839.738 1.698 1.52 1.935 2.881 3.95 4.771 4.83 7.01 3.267 12.374-.535 17.869-4.782 3.994-2.178 7.662-4.257 11.525-6.016 2.564 1.847 5.04 3.235 7.286 4.93 6.677 5.037 7.627 8.342 4.598 15.113-4.454 2.837-8.853 5.765-13.377 8.487-5.408 3.254-10.86 6.444-16.404 9.459-7.68 4.177-14.657 1.628-18.218-7.348-.148-8.379-.385-15.905-.622-23.43-.043-.446-.085-.892.17-1.78.753-.683 1.208-.922 1.664-1.161z"/><path fill="#A35B24" d="M62.085 72.94c2.727-6.873 1.777-10.178-4.9-15.216-2.245-1.694-4.722-3.082-7.046-5.141 1.349-1.295 2.652-2.059 3.956-2.822 11.758 4.267 14.853 9.774 11.46 20.878-.03.43-.017.393-.362.424-.64.386-.935.741-1.23 1.096-.525.294-1.05.588-1.878.78z"/><path fill="#394E74" d="M56.027 22.666c-10.568-.785-12.056 3.511-13.01 13.818-.166 1.793-.036 3.614-.363 5.831-1.782-.412-3.242-1.234-4.703-2.055-.065-1.812-.184-3.625-.185-5.437-.006-9.892 4.24-13.98 14.728-13.81 1.402.463 2.375.925 3.533 1.653z"/><path fill="#DE8C28" d="M13.061 60.464c.338 7.067.575 14.593.713 22.63-.336-7.05-.575-14.61-.713-22.63zM14.878 56.717c-.338.587-.793.826-1.482 1.178-.305-1.934-.376-3.98-.35-6.454.636 1.356 1.175 3.142 1.832 5.276z"/><path fill="#3B61AA" d="M64.296 72.058c-.038-.254.257-.609.902-1.013.044.27-.263.591-.902 1.013z"/><path fill="#FBFAF8" d="M37.895 40.703c1.517.378 2.977 1.2 4.75 2.058a227.413 227.413 0 0 1 11.248 6.736c-1.102 1.027-2.405 1.79-3.949 2.767-3.908 2.29-7.576 4.369-11.637 6.127-.501-1.745-.61-3.17-.719-4.597.084-4.216.167-8.432.307-13.091z"/><path fill="#B28515" d="M37.266 53.91c.431 1.31.54 2.736.715 4.582-5.102 4.566-10.467 8.368-17.476 5.101-1.89-.88-3.251-2.895-4.645-4.612 8.14 2.482 14.588-1.34 21.406-5.07z"/></svg>