<svg xmlns="http://www.w3.org/2000/svg" xml:space="preserve" viewBox="0 0 711.2 383.6" xmlns:xlink="http://www.w3.org/1999/xlink"><defs><clipPath id="b" clipPathUnits="userSpaceOnUse"><path d="M11.5 162C11.5 81.7 135.3 16.6 288 16.6s276.5 65 276.5 145.4c0 80.3-123.8 145.4-276.5 145.4S11.5 242.4 11.5 162"/></clipPath><clipPath id="d" clipPathUnits="userSpaceOnUse"><use href="#a"/></clipPath><clipPath id="e" clipPathUnits="userSpaceOnUse"><use href="#a"/></clipPath><path id="a" d="M0 324h576V0H0z"/><path id="f" fill="#000" stroke="none" d="M0 0q18 0 26.8 6.6 8.5 6.6 11.5 22.4 3 14.7-2.1 20.3Q31 55 14.3 55H-5L-15.7 0zm-63-67.7a3 3 0 0 0-3 3.5l28.3 145.8a3 3 0 0 0 3 2.4h61q28.9 0 42.5-15.5Q82.3 53 77 25.5a69 69 0 0 0-20.9-37.2A59 59 0 0 0 34-25.1Q22-29 3.4-29h-24.7l-7-36.3a3 3 0 0 0-3-2.5z"/><radialGradient id="c" cx="0" cy="0" r="1" fx="0" fy="0" gradientTransform="matrix(363.05789 0 0 -363.05789 177.5 256.3)" gradientUnits="userSpaceOnUse" spreadMethod="pad"><stop offset="0" stop-color="#aeb2d5"/><stop offset=".3" stop-color="#aeb2d5"/><stop offset=".8" stop-color="#484c89"/><stop offset="1" stop-color="#484c89"/></radialGradient></defs><g clip-path="url(#b)" transform="matrix(1.25 0 0 -1.25 -4.4 394.3)"><path fill="url(#c)" d="M11.5 162C11.5 81.7 135.3 16.6 288 16.6s276.5 65 276.5 145.4c0 80.3-123.8 145.4-276.5 145.4S11.5 242.4 11.5 162"/></g><g clip-path="url(#d)" transform="matrix(1.25 0 0 -1.25 -4.4 394.3)"><path fill="#777bb3" d="M288 27.4c146.7 0 265.7 60.3 265.7 134.6 0 74.4-119 134.7-265.7 134.7S22.3 236.4 22.3 162 141.3 27.4 288 27.4"/></g><g clip-path="url(#e)" transform="matrix(1.25 0 0 -1.25 -4.4 394.3)"><use href="#f" transform="translate(161.7 145.3)"/><path fill="#fff" d="M159.2 197.3H176c13.4 0 18-3 19.7-4.7q4-4.5 1.4-17.8-2.9-14.5-10.4-20.5-7.9-6-25-6h-12zm28.8 35h-61a6 6 0 0 1-6-4.9L92.8 81.7a6 6 0 0 1 5.8-7.2h31.8a6 6 0 0 1 5.9 4.9l6.6 33.9h22.2q19 0 31.5 4a71 71 0 0 1 45.1 53q5.5 28.8-9 45.5-14.4 16.5-44.7 16.5m-45.6-90h19.3q19.2 0 28.6 7.2 9.4 7.4 12.7 24.2 3.1 16.2-2.9 23-5.9 6.6-23.9 6.6h-22zm45.6 84q27.6 0 40.2-14.5t7.6-40.3a65 65 0 0 0-20-35.7 56 56 0 0 0-21-12.7 97 97 0 0 0-29.8-3.8h-27.2l-7.5-38.7H98.5L127 226.3z"/><path d="M311.6 116.3a3 3 0 0 0-3 3.6l12.7 64.4c1.2 6 .9 10.5-.8 12.4-1.1 1-4.3 3-13.6 3h-22.7l-15.8-81a3 3 0 0 0-3-2.5H234a3 3 0 0 0-3 3.6l28.3 145.7a3 3 0 0 0 3 2.4h31.3a3 3 0 0 0 3-3.5l-7-35.2h24.7c18.6 0 31.2-3.3 38.6-10q11.2-10.6 7-32.7l-13.5-67.8a3 3 0 0 0-2.8-2.4z"/><path fill="#fff" d="M293.7 271h-31.5a6 6 0 0 1-5.9-4.9L228 120.4a6 6 0 0 1 5.9-7.2h31.5a6 6 0 0 1 5.9 5l15.2 78.6h20.3c9.3 0 11.3-2 11.4-2.1.5-.6 1.3-3.5 0-9.8l-12.5-64.5a6 6 0 0 1 6-7.2h32a6 6 0 0 1 5.8 4.9l13.2 67.8q4.5 24-7.9 35.5-11.7 10.9-40.6 10.8h-20.8l6.3 31.8a6 6 0 0 1-6 7m0-6-7.5-38.7h28q26.6 0 36.6-9.3 10-9.1 6-30l-13.2-67.7h-31.9l12.6 64.4q2.1 11.1-1.6 15t-15.8 4h-25.2l-16.2-83.4H234L262.2 265z"/><use href="#f" transform="translate(409.5 145.3)"/><path fill="#fff" d="M407 197.3h16.8c13.4 0 18-3 19.7-4.7q4-4.5 1.4-17.8-2.9-14.5-10.4-20.5-7.9-6-25-6h-12zm28.8 35h-61a6 6 0 0 1-6-4.9L340.6 81.7a6 6 0 0 1 5.8-7.2h31.8a6 6 0 0 1 5.9 4.9l6.6 33.9h22.2q19 0 31.5 4a71 71 0 0 1 45.1 53q5.5 28.8-9 45.5-14.4 16.5-44.7 16.5m-45.6-90h19.3q19.2 0 28.6 7.2 9.4 7.4 12.7 24.2 3.1 16.2-2.9 23-5.9 6.6-23.9 6.6h-22zm45.6 84q27.6 0 40.2-14.5t7.6-40.3a65 65 0 0 0-20-35.7 56 56 0 0 0-21-12.7 97 97 0 0 0-29.8-3.8h-27.2l-7.5-38.7h-31.8l28.5 145.7z"/></g></svg>