<svg xmlns="http://www.w3.org/2000/svg" preserveAspectRatio="xMidYMid" viewBox="0 0 256 296"><path fill="#673AB8" d="m128 0 128 73.9v147.8l-128 73.9L0 221.7V73.9z"/><path fill="#FFF" d="M34.9 220.5c17 21.8 71 5.2 122.1-34.7s80.3-88.4 63.2-110.2-71-5.1-122.1 34.8c-51 39.8-80.3 88.3-63.2 110m7.2-5.7c-5.6-7.2-3.1-21.4 7.6-39.3a228 228 0 0 1 54-57.9c23.6-18.4 48.4-32 69.3-38.4 20-6.1 34.3-5 40 2.1 5.6 7.3 3.1 21.4-7.6 39.3a228 228 0 0 1-54 58A228 228 0 0 1 82 216.8c-20 6.2-34.3 5.1-40-2.1"/><path fill="#FFF" d="M220.2 220.5c17-21.8-12.1-70.3-63.2-110.1-51-40-105-56.5-122-34.8S47 146 98 185.8c51 39.9 105.1 56.5 122.1 34.7m-7.2-5.7c-5.7 7.2-20 8.3-40 2.1-21-6.4-45.7-20-69.2-38.4a228 228 0 0 1-54-58C39 102.8 36.4 88.6 42 81.4s20-8.2 40-2.1c21 6.4 45.7 20 69.2 38.4a228 228 0 0 1 54 58c10.8 17.8 13.3 32 7.7 39.2"/><path fill="#FFF" d="M127.6 167.7a19.6 19.6 0 1 0 0-39.2 19.6 19.6 0 0 0 0 39.2"/></svg>