<svg xmlns="http://www.w3.org/2000/svg" version="1.0" viewBox="0 0 122.8 134.7" xmlns:xlink="http://www.w3.org/1999/xlink"><defs><linearGradient id="c"><stop offset="0" stop-color="#b8b8b8" stop-opacity=".5"/><stop offset="1" stop-color="#7f7f7f" stop-opacity="0"/></linearGradient><linearGradient id="a"><stop offset="0" stop-color="#ffd43b"/><stop offset="1" stop-color="#ffe873"/></linearGradient><linearGradient id="b"><stop offset="0" stop-color="#5a9fd4"/><stop offset="1" stop-color="#306998"/></linearGradient><linearGradient id="e" x1="151" x2="112" y1="192.4" y2="137.3" gradientTransform="matrix(.56254 0 0 .56797 -15 -11.7)" gradientUnits="userSpaceOnUse" href="#a"/><linearGradient id="d" x1="26.6" x2="135.7" y1="20.6" y2="114.4" gradientTransform="matrix(.56254 0 0 .56797 -15 -11.7)" gradientUnits="userSpaceOnUse" href="#b"/><radialGradient id="f" cx="61.5" cy="132.3" r="29" fx="61.5" fy="132.3" gradientTransform="matrix(0 -.23995 1.05467 0 -83.7 142.5)" gradientUnits="userSpaceOnUse" href="#c"/></defs><path fill="url(#d)" d="M55 0q-7 0-13 1C30.8 3.2 28.7 7.4 28.7 15v10.3h26.8v3.4H18.7c-7.9 0-14.7 4.6-16.8 13.6a50 50 0 0 0 0 27.2c1.9 8 6.4 13.6 14.2 13.6h9.3V70.8A17 17 0 0 1 42 54.2h27c7.4 0 13.4-6.1 13.4-13.6V15c0-7.2-6.1-12.7-13.4-14q-7-1-14-1M40.3 8.2a5 5 0 0 1 5 5.1 5 5 0 0 1-5 5.1 5 5 0 0 1-5-5 5 5 0 0 1 5-5.2"/><path fill="url(#e)" d="M85.6 28.7v11.9c0 9.2-7.8 17-16.7 17H42c-7.3 0-13.4 6.2-13.4 13.6v25.5c0 7.3 6.3 11.6 13.4 13.6 8.5 2.5 16.6 3 26.8 0 6.7-2 13.4-5.8 13.4-13.6V86.5H55.5v-3.4h40.2c7.8 0 10.7-5.4 13.4-13.6a46 46 0 0 0 0-27.2c-2-7.8-5.6-13.6-13.4-13.6zm-15 64.6a5 5 0 0 1 5 5.1 5 5 0 0 1-5 5.1 5 5 0 0 1-5-5 5 5 0 0 1 5-5.2"/><ellipse cx="55.8" cy="127.7" fill="url(#f)" opacity=".4" rx="35.9" ry="7"/></svg>