<svg xmlns="http://www.w3.org/2000/svg" id="Layer_1" data-name="Layer 1" viewBox="0 0 1024 1024"><defs><style>.cls-1{fill:#4695eb}.cls-2{fill:#ff004a}.cls-3{fill:#091313}</style></defs><path d="M669.34 180.57 512 271.41l157.34 90.84z" class="cls-1"/><path d="M354.66 180.57v181.68L512 271.41z" class="cls-2"/><path d="M669.34 362.25 512 271.41l-157.34 90.84L512 453.09z" class="cls-3"/><path d="m188.76 467.93 157.34 90.83V377.09z" class="cls-1"/><path d="m346.1 740.44 157.33-90.84-157.33-90.84z" class="cls-2"/><path d="M346.1 377.09v181.67l157.33 90.84V467.93z" class="cls-3"/><path d="M677.9 740.44V558.76L520.57 649.6z" class="cls-1"/><path d="M835.24 467.93 677.9 377.09v181.67z" class="cls-2"/><path d="m520.57 649.6 157.33-90.84V377.09l-157.33 90.84z" class="cls-3"/><path d="M853.47 1H170.53C77.29 1 1 77.29 1 170.53v682.94C1 946.71 77.29 1023 170.53 1023h467.7L512 716.39 420.42 910H170.53C139.9 910 114 884.1 114 853.47V170.53c0-30.63 25.9-56.53 56.53-56.53h682.94c30.63 0 56.53 25.9 56.53 56.53v682.94c0 30.63-25.9 56.53-56.53 56.53H705.28l46.52 113h101.67c93.24 0 169.53-76.29 169.53-169.53V170.53C1023 77.29 946.71 1 853.47 1" class="cls-1"/></svg>