<svg xmlns="http://www.w3.org/2000/svg" xml:space="preserve" overflow="visible" viewBox="0 0 198.1 197.6" xmlns:xlink="http://www.w3.org/1999/xlink"><defs><linearGradient id="a" x1="174.1" x2="132.3" y1="215.5" y2="141.8" gradientUnits="userSpaceOnUse"><stop offset="0" stop-color="#fb7655"/><stop offset="0" stop-color="#fb7655"/><stop offset=".4" stop-color="#e42b1e"/><stop offset="1" stop-color="#900"/><stop offset="1" stop-color="#900"/></linearGradient><linearGradient id="c" x1="194.9" x2="141" y1="153.6" y2="117.4" gradientUnits="userSpaceOnUse"><stop offset="0" stop-color="#871101"/><stop offset="0" stop-color="#871101"/><stop offset="1" stop-color="#911209"/><stop offset="1" stop-color="#911209"/></linearGradient><linearGradient id="d" x1="151.8" x2="97.9" y1="217.8" y2="181.6" gradientUnits="userSpaceOnUse"><stop offset="0" stop-color="#871101"/><stop offset="0" stop-color="#871101"/><stop offset="1" stop-color="#911209"/><stop offset="1" stop-color="#911209"/></linearGradient><linearGradient id="e" x1="38.7" x2="47" y1="127.4" y2="181.7" gradientUnits="userSpaceOnUse"><stop offset="0" stop-color="#fff"/><stop offset="0" stop-color="#fff"/><stop offset=".2" stop-color="#e57252"/><stop offset=".5" stop-color="#de3b20"/><stop offset="1" stop-color="#a60003"/><stop offset="1" stop-color="#a60003"/></linearGradient><linearGradient id="f" x1="96.1" x2="99.2" y1="76.7" y2="132.1" gradientUnits="userSpaceOnUse"><stop offset="0" stop-color="#fff"/><stop offset="0" stop-color="#fff"/><stop offset=".2" stop-color="#e4714e"/><stop offset=".6" stop-color="#be1a0d"/><stop offset="1" stop-color="#a80d00"/><stop offset="1" stop-color="#a80d00"/></linearGradient><linearGradient id="g" x1="147.1" x2="156.3" y1="25.5" y2="65.2" gradientUnits="userSpaceOnUse"><stop offset="0" stop-color="#fff"/><stop offset="0" stop-color="#fff"/><stop offset=".2" stop-color="#e46342"/><stop offset=".4" stop-color="#c82410"/><stop offset="1" stop-color="#a80d00"/><stop offset="1" stop-color="#a80d00"/></linearGradient><linearGradient id="h" x1="119" x2="158.7" y1="11.5" y2="-8.3" gradientUnits="userSpaceOnUse"><stop offset="0" stop-color="#fff"/><stop offset="0" stop-color="#fff"/><stop offset=".5" stop-color="#c81f11"/><stop offset="1" stop-color="#bf0905"/><stop offset="1" stop-color="#bf0905"/></linearGradient><linearGradient id="i" x1="3.9" x2="7.2" y1="113.6" y2="146.3" gradientUnits="userSpaceOnUse"><stop offset="0" stop-color="#fff"/><stop offset="0" stop-color="#fff"/><stop offset=".3" stop-color="#de4024"/><stop offset="1" stop-color="#bf190b"/><stop offset="1" stop-color="#bf190b"/></linearGradient><linearGradient id="j" x1="-18.6" x2="135" y1="155.1" y2="-2.8" gradientUnits="userSpaceOnUse"><stop offset="0" stop-color="#bd0012"/><stop offset="0" stop-color="#bd0012"/><stop offset=".1" stop-color="#fff"/><stop offset=".2" stop-color="#fff"/><stop offset=".3" stop-color="#c82f1c"/><stop offset=".3" stop-color="#820c01"/><stop offset=".5" stop-color="#a31601"/><stop offset=".7" stop-color="#b31301"/><stop offset="1" stop-color="#e82609"/><stop offset="1" stop-color="#e82609"/></linearGradient><linearGradient id="k" x1="99.1" x2="52.8" y1="171" y2="159.6" gradientUnits="userSpaceOnUse"><stop offset="0" stop-color="#8c0c01"/><stop offset="0" stop-color="#8c0c01"/><stop offset=".5" stop-color="#990c00"/><stop offset="1" stop-color="#a80d0e"/><stop offset="1" stop-color="#a80d0e"/></linearGradient><linearGradient id="l" x1="178.5" x2="137.4" y1="115.5" y2="78.7" gradientUnits="userSpaceOnUse"><stop offset="0" stop-color="#7e110b"/><stop offset="0" stop-color="#7e110b"/><stop offset="1" stop-color="#9e0c00"/><stop offset="1" stop-color="#9e0c00"/></linearGradient><linearGradient id="m" x1="193.6" x2="173.2" y1="47.9" y2="26.1" gradientUnits="userSpaceOnUse"><stop offset="0" stop-color="#79130d"/><stop offset="0" stop-color="#79130d"/><stop offset="1" stop-color="#9e120b"/><stop offset="1" stop-color="#9e120b"/></linearGradient><linearGradient id="p" x1="26.7" x2="10" y1="197.3" y2="140.7" gradientUnits="userSpaceOnUse"><stop offset="0" stop-color="#8b2114"/><stop offset="0" stop-color="#8b2114"/><stop offset=".4" stop-color="#9e100a"/><stop offset="1" stop-color="#b3100c"/><stop offset="1" stop-color="#b3100c"/></linearGradient><linearGradient id="q" x1="154.6" x2="192" y1="9.8" y2="26.3" gradientUnits="userSpaceOnUse"><stop offset="0" stop-color="#b31000"/><stop offset="0" stop-color="#b31000"/><stop offset=".4" stop-color="#910f08"/><stop offset="1" stop-color="#791c12"/><stop offset="1" stop-color="#791c12"/></linearGradient><linearGradient id="b" x1="174.1" x2="132.3" y1="215.5" y2="141.8" gradientUnits="userSpaceOnUse" href="#a"/><radialGradient id="n" cx="143.8" cy="79.4" r="50.4" gradientUnits="userSpaceOnUse"><stop offset="0" stop-color="#a80d00"/><stop offset="0" stop-color="#a80d00"/><stop offset="1" stop-color="#7e0e08"/><stop offset="1" stop-color="#7e0e08"/></radialGradient><radialGradient id="o" cx="74.1" cy="145.8" r="66.9" gradientUnits="userSpaceOnUse"><stop offset="0" stop-color="#a30c00"/><stop offset="0" stop-color="#a30c00"/><stop offset="1" stop-color="#800e08"/><stop offset="1" stop-color="#800e08"/></radialGradient></defs><path fill="url(#b)" fill-rule="evenodd" d="M153.5 130.4 40.4 197.6l146.4-10L198.1 40z" clip-rule="evenodd"/><path fill="url(#c)" fill-rule="evenodd" d="m187.1 187.5-12.6-86.8-34.3 45.2z" clip-rule="evenodd"/><path fill="url(#d)" fill-rule="evenodd" d="M187.3 187.5 95 180.3l-54.1 17.1z" clip-rule="evenodd"/><path fill="url(#e)" fill-rule="evenodd" d="m41 197.4 23-75.5-50.7 10.9z" clip-rule="evenodd"/><path fill="url(#f)" fill-rule="evenodd" d="M140.2 146.2 119 63.1 58.3 120z" clip-rule="evenodd"/><path fill="url(#g)" fill-rule="evenodd" d="M193.3 64.3 136 17.5l-16 51.6z" clip-rule="evenodd"/><path fill="url(#h)" fill-rule="evenodd" d="m166.5.8-33.7 18.6L111.5.5z" clip-rule="evenodd"/><path fill="url(#i)" fill-rule="evenodd" d="m0 158.1 14.1-25.8-11.4-30.7z" clip-rule="evenodd"/><path fill="#fff" fill-rule="evenodd" d="m2 100.7 11.4 32.6 50-11.2 57-53 16.2-51.2L111.2 0l-43 16.1c-13.7 12.7-40 37.7-41 38.1-1 .5-17.4 31.6-25.3 46.5" clip-rule="evenodd"/><path fill="url(#j)" fill-rule="evenodd" d="M42.3 42c29.5-29.1 67.4-46.4 82-31.7s-1 50.4-30.4 79.6-66.9 47.3-81.4 32.6.4-51.3 29.8-80.4" clip-rule="evenodd"/><path fill="url(#k)" fill-rule="evenodd" d="m41 197.4 22.9-75.7 75.9 24.3c-27.5 25.8-58 47.6-98.8 51.4" clip-rule="evenodd"/><path fill="url(#l)" fill-rule="evenodd" d="M120.6 68.9 140 146c23-24 43.6-50 53.6-82z" clip-rule="evenodd"/><path fill="url(#m)" fill-rule="evenodd" d="M193.4 64.4C201.2 40.8 203 7 166.3.8L136 17.5z" clip-rule="evenodd"/><path fill="#9e1209" fill-rule="evenodd" d="M0 157.8c1 38.8 29.1 39.4 41 39.7l-27.5-64.4z" clip-rule="evenodd"/><path fill="url(#n)" fill-rule="evenodd" d="m120.7 69 53.8 33c1.1.6 15.3-24 18.5-37.8z" clip-rule="evenodd"/><path fill="url(#o)" fill-rule="evenodd" d="m63.8 121.7 30.6 59a203 203 0 0 0 45.2-34.6z" clip-rule="evenodd"/><path fill="url(#p)" fill-rule="evenodd" d="M13.4 133.2 9 184.8c8.2 11.1 19.4 12 31.2 11.2-8.5-21.2-25.6-63.7-26.9-62.8" clip-rule="evenodd"/><path fill="url(#q)" fill-rule="evenodd" d="m135.9 17.6 60.7 8.5C193.4 12.4 183.4 3.5 166.5.8z" clip-rule="evenodd"/></svg>