<svg xmlns="http://www.w3.org/2000/svg" xml:space="preserve" viewBox="0 0 98.1 118"><path fill="#ff3e00" d="M91.8 15.6A36 36 0 0 0 43.6 5.2L16.1 22.8A31 31 0 0 0 1.9 43.9a33 33 0 0 0 3.3 21.3Q1.6 70.6.5 77c-1.6 8.9.5 18.1 5.7 25.4a36 36 0 0 0 48.2 10.4l27.5-17.5a31 31 0 0 0 14.2-21.1c1.3-7.3.2-14.8-3.3-21.3q3.6-5.5 4.7-11.8a33 33 0 0 0-5.7-25.5"/><path fill="#fff" d="M40.9 103.9a22 22 0 0 1-23.4-8.7A20 20 0 0 1 14 79.9l.6-2.6.5-1.6 1.4 1q5 3.6 10.8 5.4l1 .3-.1 1q-.1 2.2 1.1 4.1a6.6 6.6 0 0 0 8.8 2L65.5 72a6 6 0 0 0 2.6-3.8q.4-2.5-1-4.6a6.6 6.6 0 0 0-8.8-1.9l-10.5 6.7a22 22 0 0 1-29-6.3 20 20 0 0 1-3.4-15.3A19 19 0 0 1 24 34.1l27.5-17.5q2.6-1.6 5.6-2.5a22 22 0 0 1 23.4 8.7 20 20 0 0 1 2.8 17.9l-.5 1.6-1.4-1a37 37 0 0 0-10.8-5.4l-1-.3.1-1q.1-2.2-1.1-4.1a6.6 6.6 0 0 0-8.8-1.9L32.4 46.1q-2.1 1.4-2.6 3.8c-.5 2.4.1 3.3 1 4.6a6.6 6.6 0 0 0 8.8 1.9l10.5-6.7q2.6-1.6 5.6-2.5a22 22 0 0 1 23.4 8.7c3.2 4.4 4.4 9.9 3.5 15.3A19 19 0 0 1 74 83.9l-27.5 17.5a22 22 0 0 1-5.6 2.5"/></svg>