<svg xmlns="http://www.w3.org/2000/svg" fill="none" viewBox="0 0 32 32" xmlns:xlink="http://www.w3.org/1999/xlink"><path fill="url(#a)" d="M22.1 25.3a14 14 0 0 1-12.4.1A19 19 0 0 1 1 18q1.5 1.1 3.2 2c4.8 2 9.5 2 12.8 0A68 68 0 0 1 5.2 7.7L3.7 5.6A97 97 0 0 0 15 14.3a84 84 0 0 1-8-10 80 80 0 0 0 13.7 11l.3-1c1.1-4-.1-8.5-2.9-12.3 6.4 3.8 10.2 11 8.6 17l-.1.6c3.1 3.9 2.3 8 2 7.3-1.8-3.3-5-2.3-6.6-1.6"/><defs><linearGradient id="a" x1="15" x2="15" y1="2" y2="27" gradientUnits="userSpaceOnUse"><stop stop-color="#F88A36"/><stop offset="1" stop-color="#FD2020"/></linearGradient></defs></svg>