<svg xmlns="http://www.w3.org/2000/svg" xml:space="preserve" viewBox="0 0 202 223.7"><path fill="#FFF" d="M0 0h202v223.7H0z"/><path d="M156 84.4a56 56 0 1 1-112.2 0 56 56 0 0 1 112.2 0"/><path fill="#FFF" d="M124.4 49.1c-5.7.2-10.7 3.4-14.4 7.7a49 49 0 0 0-8.8 16.2c-3.5-2.9-6.2-6.6-11.8-8.3-4.4-1.2-9-.7-13.2 2.4-2 1.5-3.4 3.8-4 5.9-1.7 5.5 1.8 10.4 3.3 12.2l3.5 3.6c.7.8 2.4 2.7 1.6 5.4-1 3-4.5 4.8-8.1 3.7-1.6-.5-4-1.7-3.5-3.4l1-1.8.5-1.2c.6-2.1-.3-5-2.6-5.7-2.2-.7-4.4-.1-5.3 2.7-1 3.1.6 8.9 8.7 11.4 9.6 3 17.6-2.3 18.8-9 .7-4.3-1.2-7.4-4.7-11.5l-2.9-3.1a5 5 0 0 1-.5-7c1.5-1.9 3.6-2.7 7.2-1.7 5.1 1.4 7.4 5 11.2 7.8q-2.2 8-3.5 15l-.6 3.6c-2.7 14.3-4.8 22.2-10.2 26.7-1.1.8-2.7 2-5 2-1.3 0-1.7-.8-1.7-1.1 0-1 .7-1.3 1.2-1.7.7-.4 1.8-1 1.7-3.2 0-2.4-2.1-4.6-5-4.5a6 6 0 0 0-5.6 6c.2 4 3.9 7 9.4 6.8 3-.1 9.7-1.3 16.2-9.1 7.6-9 9.8-19.2 11.4-26.7l1.8-9.9 3.2.2c9.5.2 14.3-4.7 14.3-8.3 0-2.1-1.4-4.3-3.5-4.2a4 4 0 0 0-3.7 3c-.5 2 3 3.8.3 5.6-2 1.2-5.4 2.1-10.2 1.4l.9-4.9c1.8-9.2 4-20.6 12.4-20.9.6 0 2.9 0 3 1.5 0 .5-.2.7-.8 1.8a4 4 0 0 0-.8 2.5c.1 2.4 2 4 4.5 3.8 3.5 0 4.5-3.5 4.4-5.2-.1-4-4.4-6.7-10.1-6.5"/><path d="M120.7 163.9c5.7 0 9.5 4 9.5 9.7 0 5.4-4 9.8-9.5 9.8a9.4 9.4 0 0 1-9.5-9.8c0-5.6 3.8-9.7 9.5-9.7m0 16.7c4 0 5.8-3.6 5.8-7 0-3.5-2.2-7-5.8-7-3.7 0-5.9 3.5-5.9 7 0 3.4 1.8 7 5.9 7m-10-15v-1.3h-5v-1.7c0-2.6.4-4.5 3.4-4.5h.2q1.3-.1 1.5-1.4l.1-1.1-2.3-.3c-5 0-6.2 3-6.2 7.5v1.5H98v1.5q.1 1.2 1.5 1.3h2.9V183h1.8q1.3-.1 1.6-1.4v-14.5h3.4q1.3-.2 1.5-1.5M65 164.3a2 2 0 0 0-1.8 1.2l-4.7 14.2-4.7-14.2a2 2 0 0 0-1.7-1.2h-2.5l6.4 17.4c.2.6.6 1.6.6 2s-1 4.6-4 4.6h-.3q-1.3 0-1.5 1.3l-.1 1.2 2.3.3c4.6 0 6-4.2 7.2-7.7l6.9-19zm-21.9 3.8c-2.8-1.4-6-2.4-6-5.3 0-3.2 2.9-4 5-4h.1q1.4 0 2.5.3 1.3-.1 1.5-1.4v-1q-2.1-.6-4.2-.6c-4.7 0-8.3 2.4-8.3 7 0 4 2.7 5.6 5.6 7 2.9 1.3 6 2.5 6 5.8 0 3.4-3.3 4.7-5.6 4.7q-2.1 0-4-.7-1.3 0-1.6 1.4v1q2.5 1 5.1 1c5.4 0 9.5-2.1 9.5-7.7 0-4.2-2.7-6-5.6-7.5M95 183q1.3-.1 1.6-1.3V171c0-4-1.7-7.1-6.5-7.1-1.6 0-4.5 1-5.7 3.6a5.5 5.5 0 0 0-5.3-3.6q-4 0-6 3.1v-1q-.1-1.5-1.6-1.6h-1.6V183h1.8q1.5-.1 1.6-1.6v-7.8c0-3.5 1.4-7 4.9-7 2.8 0 3.3 3 3.3 5.3v11h1.9q1.3-.1 1.5-1.4v-8c0-3.4 1.4-6.8 5-6.8 2.7 0 3.3 2.8 3.3 5.2v11zm53.2 0q1.4-.2 1.5-1.5v-9.6c0-5-2.1-8-7-8-2.6 0-5 1.3-6 3.4h-.1v-1.4q-.1-1.5-1.6-1.6h-1.8V183h2q1.2-.2 1.5-1.5v-7.2c0-4.5 1.7-7.6 5.6-7.6 3 .1 4 2.3 4 6.6v9.7zm18.5-18.7a2 2 0 0 0-1.8 1.2l-4.7 14.2-4.7-14.2a2 2 0 0 0-1.8-1.2h-2.4l6.4 17.4c.2.6.6 1.6.6 2s-1 4.6-4 4.6h-.3q-1.3 0-1.5 1.3l-.1 1.2 2.3.3c4.6 0 6-4.2 7.2-7.7l6.9-19z"/></svg>