<svg xmlns="http://www.w3.org/2000/svg" viewBox="0 0 680 762" xml:space="preserve"><path fill="#FFF" d="M330 1c1.714 0 3.429 0 5.285.284 3.16 3.047 6.035 5.987 9.22 8.54C357.058 19.89 369.76 29.77 382.308 39.84c11.058 8.874 21.928 17.983 32.985 26.86 14.454 11.604 29.064 23.014 43.505 34.634 12.823 10.318 25.43 20.905 38.27 31.202 19.41 15.566 39.009 30.896 58.397 46.488 18.157 14.603 36.1 29.474 54.22 44.122 20.25 16.37 40.566 32.66 60.931 48.886 3.25 2.589 6.912 4.658 10.384 6.968 0 .444 0 .889-.277 1.851-32.442 25.9-64.596 51.295-96.775 76.658-80.977 63.826-161.966 127.638-243.232 191.282a186124.16 186124.16 0 0 1-118.012-92.988L1 281c0-.444 0-.889.285-1.38 2.813-2.121 5.375-4.155 7.862-6.278 9.327-7.96 18.58-16.009 27.953-23.915 12.094-10.203 24.312-20.26 36.411-30.457 9.25-7.795 18.351-15.766 27.604-23.557 11.978-10.084 24.081-20.02 36.055-30.11 9.376-7.9 18.595-15.99 27.963-23.902 9.968-8.419 20.055-16.697 30.042-25.095 7.133-5.999 14.147-12.14 21.285-18.133 9.613-8.07 19.334-16.01 28.934-24.094 7.384-6.217 14.605-12.627 21.986-18.847 9.725-8.194 19.53-16.292 29.31-24.42 7.645-6.355 15.42-12.559 22.906-19.096C323.333 8.452 326.549 4.59 330 1m97.753 234.756c-9.382-11.5-21.065-19.967-35.095-24.565-14.015-4.593-28.204-8.88-42.588-12.073-31.895-7.08-64.368-10.331-96.894-12.887-12.26-.964-24.556-1.453-37.6-2.202 3.913 15.847 7.435 31.189 11.505 46.384 9.542 35.629 20.227 70.896 36.116 104.32 6.797 14.296 14.099 28.53 26.454 38.914 23.937 20.117 51.826 27.912 82.443 22.032 35.87-6.89 61.232-28.023 73.551-62.487 12.56-35.135 5.91-67.746-17.892-97.436z"/><path fill="#E040FB" d="M340.998 548.964c80.984-63.817 161.973-127.629 242.95-191.455 32.18-25.363 64.333-50.759 96.775-76.324.277 72.17.277 144.523-.014 217.06-4.955 3.733-9.67 7.22-14.273 10.847-14.461 11.4-28.832 22.915-43.329 34.27-19.479 15.255-39.037 30.41-58.574 45.593-11.822 9.187-23.685 18.32-35.495 27.523-12.331 9.609-24.616 19.277-36.93 28.909-11.794 9.225-23.61 18.423-35.398 27.656a10591.307 10591.307 0 0 0-33.823 26.576c-13.177 10.408-26.256 20.94-39.492 31.27-12.56 9.805-25.285 19.4-37.874 29.169-.791.614-1.027 1.945-1.521 2.942-.75 0-1.5 0-2.602-.468-.368-71.502-.384-142.535-.4-213.568z"/><path fill="#3EC4FF" d="M340.716 548.79c.298 71.207.314 142.24.307 213.742-.773.468-1.523.468-2.364.182-.85-1.163-1.489-2.193-2.384-2.897-15.258-11.984-30.595-23.87-45.82-35.895-21.13-16.691-42.138-33.538-63.283-50.21-18.178-14.335-36.512-28.471-54.708-42.783-13.345-10.497-26.537-21.187-39.872-31.698-13.44-10.594-27.014-21.018-40.45-31.618-11.923-9.406-23.692-19.01-35.612-28.42a6116.06 6116.06 0 0 0-45.453-35.555C7.906 501.183 4.37 499.2 1 497V281.469c73.901 57.799 147.802 116.067 221.704 174.334a186124.16 186124.16 0 0 0 118.012 92.988z"/><path fill="#010101" d="M427.978 236.03c23.578 29.416 30.226 62.027 17.667 97.162-12.319 34.464-37.68 55.598-73.551 62.487-30.617 5.88-58.506-1.915-82.443-22.032-12.355-10.383-19.657-24.618-26.454-38.915-15.89-33.423-26.574-68.69-36.116-104.32-4.07-15.194-7.592-30.536-11.504-46.383 13.043.749 25.34 1.238 37.6 2.202 32.525 2.556 64.998 5.808 96.893 12.887 14.384 3.193 28.573 7.48 42.588 12.073 14.03 4.598 25.713 13.065 35.32 24.84z"/></svg>