<svg xmlns="http://www.w3.org/2000/svg" xml:space="preserve" viewBox="0 0 650.8 800"><path fill="#40b3d8" d="M481.4 508.5C476 437.3 453 391.1 441.8 365a317 317 0 0 0-28.4-50.6s-15.5 83.4-43.2 143.6a367 367 0 0 1-17 32.8c-19.2 33.8-47 66.2-63.7 99-16.4 32.6-19.5 64.8-18 101.5 1.6 36.8 10.1 73 18.3 108.8 30.8-6.6 57.6-18 80.8-32.6 61-38.2 98-99.5 108.4-165.4 0 0 .6-2.7.8-6 4.7-51 3.1-67 1.6-87.5"/><path fill="#83c933" d="M481.4 508.5C476 437.3 453 391.1 441.8 365a317 317 0 0 0-28.4-50.6l-4-6.1C319.2 181.8 146.5 118.7.6 177.2c-7 88.5 34 241 184 283.5 60.5 18.6 109 13.8 168.4 30 0 0 60.5 21 95.6 52.6 15.8 14.2 31.7 32.9 30.9 55.1 5-52.9 3.4-69 1.8-89.9"/><path fill="#f18a2a" fill-rule="evenodd" d="M416 240.1c-21.3-62.3-12.3-104 26.7-162a306 306 0 0 1 78.7-78c113.5 71 155.4 203.4 113.7 326.3-30.4 89.5-58.9 127-130.9 219 8.4-98.6-26.3-167-60.3-242.8-8.7-19.4-20.7-41.4-27.9-62.5" clip-rule="evenodd"/><path fill="#7fb93c" d="M479.6 598.5c.8-22.3-15-41-30.9-55.2-35.1-31.5-95.6-52.6-95.6-52.6a330 330 0 0 0 17-32.8c27.8-60.2 43.3-143.5 43.3-143.6s17.2 24.5 28.4 50.6 34.2 72.4 39.6 143.7c1.6 20.8 3.2 37-1.8 89.9"/></svg>