<svg xmlns="http://www.w3.org/2000/svg" xml:space="preserve" style="fill-rule:evenodd;clip-rule:evenodd;stroke-linejoin:round;stroke-miterlimit:2" viewBox="0 0 295 80"><path d="M20.918 89.57h294.943v79.632H20.918z" style="fill:none" transform="translate(-20.918 -89.57)"/><path d="M1493.5 1056.38V1037h3v24.62l-70.48-41.24 70.48-40.988V1004h-3v-19.392l-61.52 35.782z" style="fill:#fff" transform="rotate(-15 -1231.885 2605.055)scale(.4543)"/><path d="M212.517 110h-12.125L190 92l-10.392 18h-12.125L190 71z" style="fill:url(#a)" transform="rotate(255 56.716 73.358)scale(.4543)"/><path d="M212.517 110h-12.125L190 92l-10.392 18h-12.125L190 71z" style="fill:url(#b)" transform="rotate(15 178.96 -80.745)scale(.4543)"/><path d="M212.517 110h-12.125L190 92l-10.392 18h-12.125L190 71z" style="fill:url(#c)" transform="rotate(135 74.029 51.724)scale(.4543)"/><path d="M139.622 117 149 142h-18.756z" style="fill:url(#d)" transform="rotate(195 54.477 63.568)scale(.4543)"/><path d="M139.622 117 149 142h-18.756z" style="fill:url(#e)" transform="rotate(135 30.25 -20.756)scale(.4543 -.4543)"/><path d="M139.622 117 149 142h-18.756z" style="fill:url(#f)" transform="rotate(75 16.183 136.432)scale(-.4543 .4543)"/><circle cx="1496" cy="1004" r="7" style="fill:#fff" transform="rotate(-15 -1231.711 2607.195)scale(.4543)"/><circle cx="1496" cy="1004" r="7" style="fill:#fff" transform="rotate(-15 -1174.663 2598.832)scale(.4543)"/><circle cx="1496" cy="1004" r="7" style="fill:#fff" transform="rotate(-15 -1136.766 2594.298)scale(.4543)"/><circle cx="1496" cy="1004" r="7" style="fill:#fff" transform="rotate(-15 -1188.36 2716.616)scale(.4543)"/><circle cx="1496" cy="1004" r="7" style="fill:#fff" transform="rotate(-15 -1269.612 2611.729)scale(.4543)"/><path d="M1499.26 757.787s-1.89-1.298-2.26-2.587c-.29-1.018-.43-4.538-.46-5.2-.13-2.697 2.67-4.356 2.67-4.356l-9.2.191s3.14-.122 3.45 4.165c.05.661-.23 3.476-.46 5.2-.09 1.247-1.8 2.468-1.8 2.468z" style="fill:#fff" transform="rotate(-15 -653.36 2528.839)scale(.4543 .3975)"/><path d="M1495 760v-16" style="fill:none" transform="rotate(-15 -558.55 2516.982)scale(.4543 .3975)"/><path d="M1498.27 757.077s-1.56-.617-1.62-2.277c0-1.142-.01-1.519 0-2.784-.03-.682-.06-1.408 0-2.067.13-3.113 1.85-3.793 1.85-3.793l-7.04-.225s1.91.788 2.19 3.899c.06.659.04 1.698 0 2.379a89 89 0 0 0 0 2.309c.03 1.816-1.07 2.309-1.07 2.309z" style="fill:#fff" transform="rotate(-15 -558.55 2516.982)scale(.4543 .3975)"/><path d="m1496.17 759.473 59.37-39.459" style="fill:none" transform="rotate(-15 -606.126 2635.586)scale(.4543 .3975)"/><path d="M1500.86 762.056s-1-1.656 2.23-4.6c1.82-1.659 4.24-3.305 6.89-5.201 4.84-3.465 10.7-7.315 16.54-11.206 4.93-3.283 9.86-6.57 14.3-9.369 3.7-2.331 7.03-4.384 9.72-5.88.53-.294 1.06-.471 1.51-.771 2.68-1.772 4.8-.061 4.8-.061l-4.62-8.686s-.24 3.172-2.23 4.715c-.43.336-.85.744-1.33 1.123-2.47 1.933-5.68 4.224-9.28 6.747-4.33 3.031-9.26 6.299-14.2 9.571-5.84 3.876-11.67 7.796-16.7 10.891-2.75 1.694-5.21 3.248-7.36 4.269-3.14 1.488-5.85.019-5.85.019z" style="fill:#fff" transform="rotate(-15 -606.126 2635.586)scale(.4543 .3975)"/><path d="m1496.17 759.473 59.37-39.459" style="fill:none" transform="rotate(165 -307.143 222.882)scale(-.4543 .3975)"/><path d="M1496.1 754.362s1.1 1.245 5.03-.764c2.12-1.089 4.61-2.575 7.36-4.269 5.03-3.095 10.86-7.015 16.7-10.891 4.94-3.272 9.75-6.606 14.08-9.636 3.6-2.523 10.09-6.743 10.54-7.052 2.94-2.02 2.37-3.554 2.37-3.554l3.1 5.956s-1.51-1.247-3.91.529c-.44.325-6.85 4.668-10.55 6.999-4.44 2.799-9.37 6.086-14.3 9.369-5.84 3.891-11.7 7.741-16.54 11.206-2.65 1.896-5.09 3.516-6.89 5.201-3.62 3.385-1.83 5.827-1.83 5.827z" style="fill:#fff" transform="rotate(165 -307.143 222.882)scale(-.4543 .3975)"/><path d="M.449-.7H.177L.2-.648c.005.009.016.02.039.02H.32q.017.002.014.017L.128 0h.261c.023 0 .033-.01.038-.02L.45-.071H.255q-.016 0-.013-.019z" style="fill:#fff;fill-rule:nonzero" transform="matrix(40.69121 0 0 33.90665 92.042 51.17)"/><path d="M.214-.7v.685C.215-.01.218 0 .235 0h.051v-.672A.027.027 0 0 0 .257-.7z" style="fill:#fff;fill-rule:nonzero" transform="matrix(40.69121 0 0 33.90665 122.56 51.17)"/><path d="M.441-.7H.155a.02.02 0 0 0-.022.022v.049h.101v.614c0 .005.003.015.02.015h.051v-.612q.002-.015.018-.017h.056c.023 0 .034-.01.038-.019z" style="fill:#fff;fill-rule:nonzero" transform="matrix(40.69121 0 0 33.90665 149.008 51.17)"/><path d="M.422 0H.343L.28-.482.217 0H.138l.106-.7h.039c.03 0 .035.019.038.038z" style="fill:#fff;fill-rule:nonzero" transform="matrix(40.69121 0 0 33.90665 177.491 51.17)"/><path d="M.186-.7V0h.139a.09.09 0 0 0 .089-.088v-.524A.09.09 0 0 0 .325-.7zm.157.592c0 .027-.018.037-.038.037H.258v-.557h.047c.02 0 .038.01.038.036z" style="fill:#fff;fill-rule:nonzero" transform="matrix(40.69121 0 0 33.90665 206.382 51.17)"/><path d="M.291-.071v-.243q.002-.015.017-.017h.03c.023 0 .033-.01.038-.019l.023-.053H.291v-.208q.001-.016.017-.017h.058c.023 0 .034-.011.038-.02L.428-.7H.241a.02.02 0 0 0-.022.02V0h.16c.023 0 .034-.01.039-.019l.023-.052z" style="fill:#fff;fill-rule:nonzero" transform="matrix(40.69121 0 0 33.90665 236.9 51.17)"/><path d="M.283-.071v-.607C.283-.69.273-.699.261-.7h-.05V0h.172c.023 0 .034-.01.039-.019l.023-.052z" style="fill:#fff;fill-rule:nonzero" transform="matrix(40.69121 0 0 33.90665 267.42 51.17)"/><defs><linearGradient id="a" x1="0" x2="1" y1="0" y2="0" gradientTransform="rotate(105 71.278 115.734)scale(160.7235)" gradientUnits="userSpaceOnUse"><stop offset="0" style="stop-color:#ff8f00;stop-opacity:1"/><stop offset="1" style="stop-color:#fe00ff;stop-opacity:1"/></linearGradient><linearGradient id="b" x1="0" x2="1" y1="0" y2="0" gradientTransform="rotate(-15 797.558 -320.315)scale(160.7235)" gradientUnits="userSpaceOnUse"><stop offset="0" style="stop-color:#ff8f00;stop-opacity:1"/><stop offset="1" style="stop-color:#fe00ff;stop-opacity:1"/></linearGradient><linearGradient id="c" x1="0" x2="1" y1="0" y2="0" gradientTransform="rotate(225 173.81 54.311)scale(160.724)" gradientUnits="userSpaceOnUse"><stop offset="0" style="stop-color:#ff8f00;stop-opacity:1"/><stop offset="1" style="stop-color:#fe00ff;stop-opacity:1"/></linearGradient><linearGradient id="d" x1="0" x2="1" y1="0" y2="0" gradientTransform="rotate(165 100.942 86.815)scale(160.7235)" gradientUnits="userSpaceOnUse"><stop offset="0" style="stop-color:#ff8f00;stop-opacity:1"/><stop offset="1" style="stop-color:#fe00ff;stop-opacity:1"/></linearGradient><linearGradient id="e" x1="0" x2="1" y1="0" y2="0" gradientTransform="rotate(135 77.6 105.168)scale(160.724 -160.724)" gradientUnits="userSpaceOnUse"><stop offset="0" style="stop-color:#ff8f00;stop-opacity:1"/><stop offset="1" style="stop-color:#fe00ff;stop-opacity:1"/></linearGradient><linearGradient id="f" x1="0" x2="1" y1="0" y2="0" gradientTransform="rotate(75 -95.217 230.48)scale(-160.7235 160.7235)" gradientUnits="userSpaceOnUse"><stop offset="0" style="stop-color:#ff8f00;stop-opacity:1"/><stop offset="1" style="stop-color:#fe00ff;stop-opacity:1"/></linearGradient></defs></svg>